<svg xmlns="http://www.w3.org/2000/svg" xmlns:xlink="http://www.w3.org/1999/xlink" width="1024" zoomAndPan="magnify" viewBox="0 0 768 767.999994" height="1024" preserveAspectRatio="xMidYMid meet" version="1.0"><path fill="#000000" d="M 477.113281 422.753906 C 479.257812 424.9375 481.398438 427.117188 483.535156 429.292969 C 488.804688 434.648438 494.078125 440 499.355469 445.34375 C 499.996094 445.980469 500.300781 446.746094 500.265625 447.648438 C 500.265625 464.628906 500.265625 481.609375 500.265625 498.585938 C 500.265625 500.015625 499.625 500.507812 498.273438 500.5 C 481.441406 500.5 464.613281 500.5 447.78125 500.5 C 446.785156 500.511719 445.953125 500.152344 445.277344 499.425781 C 440.699219 494.816406 436.105469 490.242188 431.496094 485.699219 C 428.546875 482.796875 425.546875 479.945312 422.496094 477.003906 C 422.125 477.609375 422.015625 478.261719 422.164062 478.957031 C 422.164062 488.808594 422.164062 498.660156 422.164062 508.511719 C 422.199219 509.128906 422.097656 509.722656 421.871094 510.296875 C 421.640625 510.867188 421.300781 511.367188 420.851562 511.789062 C 408.886719 523.695312 396.945312 535.628906 385.035156 547.589844 C 384.136719 548.496094 383.578125 548.582031 382.632812 547.636719 C 370.621094 535.5625 358.585938 523.53125 346.53125 511.539062 C 346.167969 511.167969 345.890625 510.738281 345.710938 510.253906 C 345.53125 509.765625 345.457031 509.261719 345.496094 508.742188 C 345.496094 498.839844 345.496094 488.9375 345.496094 479.039062 L 345.496094 477.089844 C 344.574219 477.21875 344.214844 477.855469 343.761719 478.308594 C 336.816406 485.265625 329.863281 492.230469 322.898438 499.210938 C 322.515625 499.628906 322.0625 499.949219 321.535156 500.167969 C 321.011719 500.390625 320.464844 500.488281 319.894531 500.46875 C 303.257812 500.4375 286.617188 500.4375 269.972656 500.46875 C 267.566406 500.46875 267.246094 500.078125 267.4375 497.679688 C 267.558594 496.144531 267.613281 494.609375 267.613281 493.074219 C 267.613281 479.121094 267.613281 465.160156 267.613281 451.199219 C 267.664062 450.800781 267.664062 450.402344 267.613281 450.007812 C 266.84375 447.179688 268.203125 445.34375 270.140625 443.433594 C 276.699219 436.980469 283.097656 430.375 289.550781 423.792969 C 289.886719 423.453125 290.316406 423.191406 290.449219 422.617188 C 289.941406 422.171875 289.320312 422.371094 288.757812 422.371094 C 278.957031 422.371094 269.15625 422.371094 259.355469 422.371094 C 258.738281 422.398438 258.144531 422.289062 257.570312 422.054688 C 257 421.820312 256.503906 421.472656 256.085938 421.019531 C 244.292969 409.175781 232.472656 397.347656 220.621094 385.535156 C 219.132812 384.042969 219.132812 384.035156 220.621094 382.53125 C 232.460938 370.703125 244.289062 358.871094 256.109375 347.03125 C 256.527344 346.578125 257.023438 346.234375 257.59375 346 C 258.167969 345.765625 258.761719 345.664062 259.378906 345.695312 C 269.027344 345.742188 278.679688 345.695312 288.335938 345.695312 C 288.78125 345.695312 289.226562 345.695312 289.671875 345.695312 C 290.292969 345.640625 290.496094 345.316406 290.054688 344.820312 C 289.503906 344.195312 288.890625 343.613281 288.296875 343.015625 C 281.671875 336.285156 275.039062 329.558594 268.40625 322.835938 C 268.054688 322.515625 267.792969 322.132812 267.617188 321.6875 C 267.445312 321.242188 267.378906 320.785156 267.421875 320.308594 C 267.859375 315.5625 267.589844 310.808594 267.613281 306.0625 C 267.660156 296.078125 267.613281 286.089844 267.652344 276.058594 C 267.652344 273.886719 267.320312 271.730469 267.492188 269.539062 C 267.621094 267.78125 267.644531 267.632812 269.464844 267.632812 L 287.128906 267.632812 C 297.976562 267.632812 308.8125 267.632812 319.65625 267.632812 C 320.296875 267.613281 320.914062 267.726562 321.503906 267.972656 C 322.09375 268.222656 322.605469 268.582031 323.039062 269.054688 C 329.867188 275.96875 336.738281 282.796875 343.597656 289.664062 C 343.984375 290.046875 344.367188 290.429688 344.773438 290.800781 C 345.179688 291.167969 345.410156 291.054688 345.464844 290.546875 C 345.519531 290.039062 345.464844 289.65625 345.464844 289.210938 C 345.464844 279.308594 345.464844 269.410156 345.464844 259.507812 C 345.445312 258.917969 345.546875 258.347656 345.777344 257.800781 C 346.003906 257.257812 346.335938 256.78125 346.769531 256.382812 C 358.660156 244.527344 370.53125 232.664062 382.386719 220.789062 C 383.808594 219.367188 383.816406 219.375 385.175781 220.734375 C 397.003906 232.5625 408.839844 244.386719 420.683594 256.207031 C 421.179688 256.652344 421.554688 257.183594 421.8125 257.796875 C 422.074219 258.410156 422.191406 259.050781 422.164062 259.714844 C 422.105469 269.523438 422.164062 279.324219 422.164062 289.125 C 422.027344 289.835938 422.132812 290.507812 422.488281 291.136719 C 424.222656 289.472656 425.9375 287.859375 427.613281 286.207031 C 433.382812 280.480469 439.152344 274.753906 444.917969 269.023438 C 445.355469 268.554688 445.871094 268.191406 446.46875 267.945312 C 447.0625 267.695312 447.683594 267.582031 448.328125 267.605469 C 464.90625 267.632812 481.492188 267.632812 498.082031 267.605469 C 500.140625 267.605469 500.257812 267.71875 500.257812 269.800781 C 500.257812 286.574219 500.257812 303.355469 500.257812 320.140625 C 500.273438 320.683594 500.175781 321.207031 499.964844 321.710938 C 499.753906 322.214844 499.449219 322.648438 499.050781 323.019531 C 492.140625 329.964844 485.261719 336.933594 478.402344 343.929688 C 478.128906 344.210938 477.835938 344.488281 477.589844 344.796875 C 477.152344 345.324219 477.367188 345.609375 477.980469 345.65625 C 478.472656 345.695312 478.964844 345.65625 479.464844 345.65625 C 489.117188 345.65625 498.765625 345.65625 508.421875 345.65625 C 508.988281 345.632812 509.535156 345.726562 510.0625 345.941406 C 510.589844 346.15625 511.050781 346.472656 511.4375 346.886719 C 523.347656 358.851562 535.285156 370.789062 547.246094 382.691406 C 548.261719 383.707031 548.277344 384.304688 547.246094 385.320312 C 535.300781 397.238281 523.375 409.183594 511.46875 421.148438 C 511.085938 421.570312 510.632812 421.890625 510.109375 422.109375 C 509.582031 422.328125 509.035156 422.425781 508.464844 422.402344 C 498.765625 422.363281 489.058594 422.402344 479.355469 422.402344 L 477.304688 422.402344 Z M 344.238281 407.210938 L 357.921875 407.210938 C 360.664062 407.210938 360.664062 407.210938 360.664062 409.882812 C 360.664062 419.285156 360.664062 428.683594 360.664062 438.085938 C 360.664062 438.554688 360.425781 439.207031 360.964844 439.421875 C 361.503906 439.636719 361.671875 438.984375 362.019531 438.738281 C 362.175781 438.613281 362.316406 438.476562 362.449219 438.324219 C 369.15625 431.605469 375.855469 424.878906 382.546875 418.148438 C 383.492188 417.179688 384.207031 417.21875 385.144531 418.148438 C 391.023438 424.09375 396.910156 430.015625 402.808594 435.921875 C 403.894531 437.003906 404.992188 438.0625 406.097656 439.132812 C 406.636719 439.652344 406.949219 439.546875 406.972656 438.769531 C 406.972656 438.378906 406.972656 438 406.972656 437.585938 C 406.972656 428.132812 406.972656 418.679688 406.972656 409.222656 C 406.972656 407.355469 407.132812 407.195312 409.015625 407.195312 L 428.910156 407.195312 C 432.027344 407.195312 435.144531 407.195312 438.265625 407.195312 C 438.585938 407.195312 439.03125 407.324219 439.195312 406.933594 C 439.355469 406.542969 439.03125 406.265625 438.800781 406.042969 C 438.09375 405.34375 437.335938 404.714844 436.636719 404.015625 C 430.582031 397.972656 424.535156 391.925781 418.488281 385.878906 C 416.695312 384.097656 416.695312 383.953125 418.523438 382.140625 C 425.183594 375.558594 431.800781 368.960938 438.378906 362.347656 C 438.71875 362.007812 439.339844 361.632812 439.148438 361.1875 C 438.925781 360.5625 438.1875 360.871094 437.6875 360.871094 C 428.183594 360.871094 418.679688 360.871094 409.175781 360.871094 C 407.035156 360.871094 406.941406 360.773438 406.933594 358.566406 C 406.933594 349.0625 406.933594 339.558594 406.933594 330.054688 C 406.933594 329.582031 407.171875 328.898438 406.710938 328.679688 C 406.25 328.464844 405.78125 329.121094 405.429688 329.449219 C 398.773438 336.105469 392.136719 342.761719 385.519531 349.417969 C 383.855469 351.09375 383.675781 351.085938 381.996094 349.417969 C 375.375 342.761719 368.742188 336.105469 362.09375 329.449219 C 361.75 329.105469 361.394531 328.390625 360.8125 328.679688 C 360.375 328.902344 360.605469 329.59375 360.605469 330.070312 C 360.605469 339.574219 360.605469 349.078125 360.605469 358.582031 C 360.605469 360.742188 360.503906 360.839844 358.339844 360.839844 L 330.042969 360.839844 C 329.519531 360.839844 328.746094 360.585938 328.507812 361.046875 C 328.207031 361.65625 329.058594 361.96875 329.351562 362.445312 C 329.414062 362.519531 329.488281 362.585938 329.566406 362.644531 C 336.292969 369.355469 343.019531 376.054688 349.742188 382.753906 C 350.632812 383.636719 350.695312 384.34375 349.742188 385.242188 C 347.015625 387.898438 344.367188 390.621094 341.632812 393.292969 C 337.46875 397.445312 333.308594 401.605469 329.152344 405.773438 C 328.828125 406.089844 328.183594 406.425781 328.445312 406.941406 C 328.707031 407.457031 329.351562 407.171875 329.820312 407.171875 C 334.660156 407.21875 339.488281 407.210938 344.257812 407.210938 Z M 438.902344 422.402344 L 424.207031 422.402344 C 422.234375 422.402344 422.171875 422.464844 422.164062 424.375 C 422.164062 434.121094 422.164062 443.878906 422.164062 453.625 C 422.144531 454.144531 422.234375 454.644531 422.433594 455.128906 C 422.632812 455.609375 422.921875 456.027344 423.300781 456.382812 C 428.449219 461.511719 433.546875 466.691406 438.664062 471.828125 C 442.867188 476.03125 447.113281 480.191406 451.285156 484.386719 C 451.882812 485.035156 452.625 485.355469 453.511719 485.347656 C 463.464844 485.347656 473.414062 485.347656 483.359375 485.347656 C 484.632812 485.347656 485.117188 484.886719 485.109375 483.601562 C 485.109375 473.753906 485.109375 463.910156 485.109375 454.054688 C 485.140625 453.222656 484.855469 452.515625 484.257812 451.933594 C 481.835938 449.46875 479.464844 446.949219 477.03125 444.492188 C 470.492188 437.878906 463.902344 431.3125 457.40625 424.652344 C 456.707031 423.851562 455.867188 423.25 454.882812 422.84375 C 453.902344 422.4375 452.882812 422.273438 451.820312 422.347656 C 447.527344 422.503906 443.179688 422.402344 438.902344 422.402344 Z M 328.9375 345.75 C 333.835938 345.75 338.738281 345.75 343.636719 345.75 C 345.042969 345.75 345.542969 345.316406 345.535156 343.882812 C 345.488281 334.027344 345.535156 324.179688 345.535156 314.324219 C 345.554688 313.847656 345.472656 313.386719 345.285156 312.945312 C 345.101562 312.503906 344.835938 312.121094 344.480469 311.800781 C 339.820312 307.191406 335.265625 302.453125 330.566406 297.828125 C 325.863281 293.203125 321.171875 288.773438 316.808594 283.910156 C 316.460938 283.515625 316.046875 283.214844 315.5625 283.011719 C 315.078125 282.804688 314.574219 282.714844 314.050781 282.742188 C 304.152344 282.742188 294.253906 282.742188 284.351562 282.742188 C 283.105469 282.742188 282.566406 283.125 282.566406 284.441406 C 282.597656 294.242188 282.597656 304.042969 282.566406 313.851562 C 282.550781 314.84375 282.902344 315.675781 283.628906 316.355469 C 292.921875 325.734375 302.207031 335.128906 311.484375 344.535156 C 311.859375 344.933594 312.296875 345.234375 312.804688 345.441406 C 313.308594 345.644531 313.835938 345.730469 314.382812 345.703125 C 319.234375 345.6875 324.128906 345.710938 328.9375 345.710938 Z M 438.773438 345.75 C 443.617188 345.75 448.472656 345.75 453.320312 345.75 C 453.863281 345.777344 454.390625 345.691406 454.894531 345.484375 C 455.398438 345.277344 455.835938 344.972656 456.207031 344.574219 C 465.546875 335.09375 474.902344 325.632812 484.273438 316.191406 C 484.871094 315.613281 485.152344 314.90625 485.125 314.074219 C 485.125 304.226562 485.125 294.378906 485.125 284.523438 C 485.125 283.25 484.648438 282.78125 483.375 282.789062 C 473.425781 282.789062 463.476562 282.789062 453.527344 282.789062 C 452.691406 282.757812 451.984375 283.039062 451.40625 283.640625 C 449.011719 286.070312 446.582031 288.464844 444.171875 290.882812 C 437.144531 297.910156 430.117188 304.933594 423.085938 311.960938 C 422.441406 312.574219 422.136719 313.324219 422.164062 314.210938 C 422.164062 324.15625 422.164062 334.105469 422.164062 344.050781 C 422.164062 345.371094 422.664062 345.753906 423.925781 345.75 C 428.855469 345.679688 433.800781 345.703125 438.757812 345.703125 Z M 328.84375 422.402344 C 325.226562 422.402344 321.601562 422.625 318.007812 422.332031 C 314.257812 422.035156 311.601562 423.1875 308.957031 425.980469 C 300.640625 434.792969 292 443.292969 283.464844 451.894531 C 282.855469 452.464844 282.558594 453.167969 282.574219 454 C 282.574219 463.898438 282.574219 473.796875 282.574219 483.695312 C 282.574219 484.914062 283.050781 485.355469 284.257812 485.347656 C 294.207031 485.347656 304.152344 485.347656 314.097656 485.347656 C 314.988281 485.382812 315.738281 485.078125 316.347656 484.433594 C 317.882812 482.894531 319.421875 481.359375 320.957031 479.824219 C 328.78125 471.988281 336.613281 464.164062 344.460938 456.34375 C 344.820312 456.003906 345.09375 455.601562 345.28125 455.140625 C 345.464844 454.683594 345.546875 454.203125 345.527344 453.707031 C 345.527344 443.910156 345.488281 434.109375 345.527344 424.308594 C 345.527344 422.769531 344.972656 422.371094 343.53125 422.386719 C 338.644531 422.402344 333.746094 422.402344 328.84375 422.402344 Z M 482.460938 407.253906 C 488.894531 407.253906 495.324219 407.21875 501.761719 407.253906 C 502.425781 407.277344 503.066406 407.160156 503.683594 406.90625 C 504.296875 406.648438 504.832031 406.277344 505.285156 405.789062 C 512.195312 398.910156 519.128906 392.070312 526.09375 385.265625 C 527.046875 384.34375 527.109375 383.667969 526.09375 382.699219 C 519.058594 375.886719 512.054688 369.035156 505.078125 362.148438 C 504.671875 361.710938 504.195312 361.382812 503.644531 361.15625 C 503.097656 360.929688 502.523438 360.828125 501.929688 360.847656 C 488.917969 360.878906 475.90625 360.878906 462.898438 360.847656 C 462.351562 360.828125 461.828125 360.921875 461.324219 361.132812 C 460.824219 361.34375 460.386719 361.648438 460.015625 362.046875 C 453.109375 368.996094 446.179688 375.90625 439.230469 382.785156 C 438.339844 383.675781 438.226562 384.238281 439.1875 385.1875 C 446.179688 392.113281 453.144531 399.070312 460.078125 406.066406 C 460.433594 406.445312 460.851562 406.734375 461.332031 406.933594 C 461.8125 407.132812 462.316406 407.222656 462.835938 407.203125 C 469.363281 407.195312 475.894531 407.21875 482.421875 407.21875 Z M 360.671875 285.269531 C 360.671875 291.851562 360.671875 298.433594 360.671875 305.007812 C 360.640625 305.503906 360.710938 305.984375 360.882812 306.445312 C 361.058594 306.910156 361.320312 307.316406 361.671875 307.667969 C 368.726562 314.675781 375.761719 321.710938 382.769531 328.765625 C 383.585938 329.59375 384.128906 329.59375 384.953125 328.765625 C 391.992188 321.679688 399.058594 314.609375 406.144531 307.558594 C 406.757812 306.992188 407.054688 306.289062 407.035156 305.453125 C 407.035156 292.101562 407.035156 278.742188 407.035156 265.375 C 407.066406 264.542969 406.789062 263.828125 406.210938 263.226562 C 405.445312 262.457031 404.722656 261.644531 403.953125 260.875 C 397.664062 254.507812 391.34375 248.179688 385.097656 241.773438 C 384.113281 240.765625 383.523438 240.929688 382.679688 241.773438 C 375.71875 248.890625 368.75 255.984375 361.765625 263.058594 C 361.386719 263.417969 361.105469 263.839844 360.910156 264.324219 C 360.71875 264.808594 360.636719 265.308594 360.664062 265.828125 C 360.6875 272.304688 360.671875 278.773438 360.671875 285.269531 Z M 360.671875 482.664062 C 360.671875 489.09375 360.671875 495.53125 360.671875 501.960938 C 360.628906 502.578125 360.726562 503.175781 360.960938 503.75 C 361.195312 504.328125 361.542969 504.820312 362.011719 505.230469 C 363.46875 506.558594 364.804688 508.027344 366.1875 509.441406 L 382.894531 526.523438 C 382.945312 526.609375 383.011719 526.683594 383.082031 526.753906 C 383.15625 526.820312 383.234375 526.882812 383.324219 526.929688 C 383.410156 526.976562 383.503906 527.015625 383.601562 527.039062 C 383.699219 527.066406 383.796875 527.078125 383.894531 527.078125 C 383.996094 527.078125 384.09375 527.066406 384.191406 527.039062 C 384.289062 527.015625 384.382812 526.976562 384.46875 526.929688 C 384.558594 526.882812 384.636719 526.820312 384.710938 526.753906 C 384.78125 526.683594 384.84375 526.609375 384.898438 526.523438 C 385.78125 525.523438 386.726562 524.570312 387.65625 523.621094 C 393.691406 517.476562 399.738281 511.351562 405.789062 505.246094 C 406.199219 504.882812 406.511719 504.449219 406.730469 503.949219 C 406.949219 503.449219 407.058594 502.929688 407.050781 502.382812 C 407.050781 489.21875 407.050781 476.054688 407.050781 462.894531 C 407.085938 461.90625 406.746094 461.070312 406.027344 460.390625 C 399.011719 453.410156 392.019531 446.414062 385.042969 439.390625 C 384.101562 438.441406 383.507812 438.546875 382.640625 439.4375 C 375.742188 446.398438 368.832031 453.324219 361.902344 460.222656 C 361.503906 460.59375 361.199219 461.027344 360.992188 461.53125 C 360.785156 462.035156 360.691406 462.558594 360.710938 463.101562 C 360.6875 469.625 360.664062 476.167969 360.671875 482.6875 Z M 285.125 407.195312 C 291.707031 407.195312 298.289062 407.195312 304.871094 407.195312 C 305.367188 407.21875 305.84375 407.140625 306.304688 406.957031 C 306.765625 406.773438 307.171875 406.507812 307.515625 406.148438 C 314.492188 399.15625 321.492188 392.171875 328.507812 385.195312 C 329.367188 384.34375 329.421875 383.785156 328.507812 382.890625 C 321.492188 375.949219 314.5 368.957031 307.53125 361.917969 C 307.1875 361.554688 306.789062 361.28125 306.328125 361.097656 C 305.871094 360.910156 305.390625 360.828125 304.894531 360.847656 C 291.789062 360.847656 278.675781 360.847656 265.5625 360.847656 C 265.039062 360.828125 264.535156 360.914062 264.050781 361.109375 C 263.566406 361.304688 263.144531 361.589844 262.78125 361.96875 C 255.914062 368.882812 249.042969 375.796875 242.167969 382.707031 C 240.816406 384.058594 240.839844 384.089844 242.234375 385.488281 C 249.054688 392.308594 255.898438 399.113281 262.691406 405.972656 C 263.09375 406.410156 263.570312 406.738281 264.117188 406.964844 C 264.667969 407.1875 265.238281 407.285156 265.832031 407.253906 C 272.261719 407.1875 278.695312 407.210938 285.125 407.21875 Z M 285.125 407.195312 " fill-opacity="1" fill-rule="nonzero"/><path fill="#000000" d="M 716.554688 523.375 L 721.214844 528.113281 L 732.738281 539.78125 C 733.199219 540.230469 733.417969 540.777344 733.398438 541.421875 C 733.398438 553.757812 733.398438 566.09375 733.398438 578.429688 C 733.398438 579.464844 732.9375 579.820312 731.953125 579.820312 L 695.246094 579.820312 C 694.53125 579.832031 693.925781 579.574219 693.433594 579.050781 C 690.101562 575.71875 686.777344 572.390625 683.449219 569.066406 C 681.308594 566.953125 679.125 564.886719 676.914062 562.753906 C 676.644531 563.191406 676.5625 563.664062 676.667969 564.167969 C 676.667969 571.324219 676.667969 578.484375 676.667969 585.632812 C 676.71875 586.578125 676.398438 587.371094 675.714844 588.023438 C 667.011719 596.671875 658.335938 605.339844 649.691406 614.03125 C 649.039062 614.691406 648.632812 614.742188 647.949219 614.03125 C 639.246094 605.257812 630.5 596.511719 621.710938 587.785156 C 621.144531 587.226562 620.890625 586.550781 620.945312 585.757812 C 620.945312 578.558594 620.945312 571.363281 620.945312 564.175781 L 620.945312 562.804688 C 620.277344 562.898438 620.015625 563.367188 619.683594 563.699219 C 614.625 568.746094 609.570312 573.808594 604.515625 578.882812 C 603.929688 579.527344 603.203125 579.832031 602.332031 579.796875 C 590.25 579.796875 578.167969 579.796875 566.085938 579.796875 C 564.335938 579.796875 564.105469 579.511719 564.246094 577.769531 C 564.328125 576.664062 564.367188 575.550781 564.367188 574.433594 C 564.367188 564.296875 564.367188 554.15625 564.367188 544.011719 C 564.40625 543.726562 564.40625 543.4375 564.367188 543.152344 C 563.808594 541.09375 564.804688 539.765625 566.210938 538.375 C 570.972656 533.679688 575.621094 528.871094 580.3125 524.101562 C 580.550781 523.859375 580.890625 523.671875 580.957031 523.257812 C 580.589844 522.929688 580.144531 523.074219 579.738281 523.074219 C 572.617188 523.074219 565.496094 523.074219 558.375 523.074219 C 557.433594 523.113281 556.640625 522.789062 555.996094 522.097656 C 547.421875 513.496094 538.835938 504.902344 530.226562 496.320312 C 529.144531 495.238281 529.144531 495.238281 530.226562 494.140625 C 538.820312 485.554688 547.410156 476.957031 556.003906 468.347656 C 556.648438 467.660156 557.441406 467.335938 558.382812 467.378906 C 565.398438 467.378906 572.410156 467.378906 579.421875 467.378906 C 579.746094 467.378906 580.066406 467.378906 580.390625 467.378906 C 580.84375 467.378906 580.980469 467.105469 580.664062 466.75 C 580.351562 466.398438 579.820312 465.867188 579.390625 465.4375 C 574.578125 460.542969 569.757812 455.65625 564.9375 450.773438 C 564.398438 450.28125 564.160156 449.667969 564.222656 448.9375 C 564.542969 445.492188 564.351562 442.027344 564.367188 438.59375 C 564.367188 431.328125 564.367188 424.0625 564.367188 416.796875 C 564.367188 415.214844 564.128906 413.644531 564.253906 412.0625 C 564.34375 410.78125 564.367188 410.671875 565.6875 410.671875 L 578.53125 410.671875 C 586.402344 410.671875 594.277344 410.671875 602.15625 410.671875 C 602.621094 410.65625 603.070312 410.734375 603.496094 410.917969 C 603.925781 411.097656 604.296875 411.363281 604.605469 411.710938 C 609.570312 416.71875 614.546875 421.707031 619.546875 426.679688 C 619.832031 426.957031 620.105469 427.234375 620.398438 427.503906 C 620.691406 427.769531 620.867188 427.6875 620.898438 427.316406 C 620.917969 426.996094 620.917969 426.671875 620.898438 426.351562 C 620.898438 419.160156 620.898438 411.964844 620.898438 404.773438 C 620.859375 403.859375 621.175781 403.089844 621.851562 402.46875 C 630.492188 393.863281 639.117188 385.246094 647.71875 376.617188 C 648.757812 375.582031 648.757812 375.585938 649.746094 376.570312 C 658.339844 385.167969 666.9375 393.757812 675.546875 402.339844 C 675.90625 402.667969 676.179688 403.054688 676.367188 403.5 C 676.554688 403.949219 676.640625 404.414062 676.621094 404.898438 C 676.574219 412.019531 676.621094 419.136719 676.621094 426.257812 C 676.527344 426.773438 676.605469 427.257812 676.859375 427.71875 C 678.121094 426.503906 679.371094 425.335938 680.585938 424.136719 C 684.777344 419.996094 688.96875 415.84375 693.152344 411.6875 C 693.816406 410.96875 694.644531 410.621094 695.625 410.652344 C 707.671875 410.652344 719.722656 410.652344 731.769531 410.652344 C 733.304688 410.652344 733.304688 410.734375 733.304688 412.25 C 733.304688 424.441406 733.304688 436.628906 733.304688 448.816406 C 733.328125 449.644531 733.039062 450.339844 732.429688 450.90625 C 727.414062 455.960938 722.410156 461.023438 717.429688 466.097656 C 717.230469 466.304688 717.023438 466.503906 716.839844 466.726562 C 716.523438 467.113281 716.675781 467.320312 717.121094 467.359375 C 717.566406 467.394531 717.835938 467.359375 718.199219 467.359375 C 725.210938 467.359375 732.222656 467.359375 739.234375 467.359375 C 740.105469 467.320312 740.835938 467.621094 741.433594 468.257812 C 750.082031 476.960938 758.75 485.628906 767.4375 494.261719 C 768.207031 495.03125 768.207031 495.4375 767.4375 496.167969 C 758.734375 504.816406 750.0625 513.488281 741.425781 522.183594 C 740.832031 522.8125 740.101562 523.109375 739.234375 523.074219 C 732.183594 523.074219 725.132812 523.074219 718.089844 523.074219 L 716.601562 523.074219 Z M 620.046875 512.074219 L 629.96875 512.074219 C 631.957031 512.074219 631.957031 512.074219 631.957031 514.011719 C 631.957031 520.847656 631.957031 527.675781 631.957031 534.503906 C 631.957031 534.839844 631.78125 535.316406 632.171875 535.476562 C 632.566406 535.640625 632.6875 535.15625 632.941406 534.980469 C 633.050781 534.886719 633.15625 534.785156 633.257812 534.679688 C 638.117188 529.792969 642.980469 524.90625 647.851562 520.015625 C 648.539062 519.316406 649.0625 519.339844 649.738281 520.015625 C 654.007812 524.332031 658.292969 528.636719 662.589844 532.921875 C 663.371094 533.714844 664.167969 534.484375 664.976562 535.226562 C 665.371094 535.609375 665.601562 535.53125 665.617188 534.964844 C 665.617188 534.679688 665.617188 534.394531 665.617188 534.105469 L 665.617188 513.558594 C 665.617188 512.199219 665.738281 512.082031 667.097656 512.082031 L 688.351562 512.082031 C 688.589844 512.082031 688.902344 512.175781 689.027344 511.882812 C 689.148438 511.589844 688.902344 511.40625 688.734375 511.238281 C 688.226562 510.730469 687.675781 510.269531 687.199219 509.761719 C 682.796875 505.378906 678.417969 500.976562 674.011719 496.589844 C 672.710938 495.300781 672.710938 495.191406 674.011719 493.878906 C 678.832031 489.097656 683.640625 484.304688 688.433594 479.5 C 688.679688 479.253906 689.125 478.980469 689.011719 478.65625 C 688.851562 478.203125 688.320312 478.425781 687.949219 478.425781 C 681.042969 478.425781 674.128906 478.425781 667.214844 478.425781 C 665.675781 478.425781 665.585938 478.347656 665.585938 476.765625 C 665.585938 469.859375 665.585938 462.945312 665.585938 456.027344 C 665.585938 455.683594 665.753906 455.183594 665.421875 455.03125 C 665.09375 454.875 664.746094 455.351562 664.484375 455.605469 C 659.65625 460.429688 654.839844 465.261719 650.03125 470.101562 C 648.816406 471.320312 648.6875 471.3125 647.464844 470.101562 C 642.65625 465.261719 637.839844 460.429688 633.011719 455.605469 C 632.757812 455.351562 632.496094 454.839844 632.074219 455.054688 C 631.652344 455.269531 631.925781 455.714844 631.925781 456.066406 C 631.925781 462.964844 631.925781 469.878906 631.925781 476.804688 C 631.925781 478.339844 631.851562 478.441406 630.277344 478.441406 L 609.714844 478.441406 C 609.332031 478.441406 608.769531 478.257812 608.601562 478.59375 C 608.433594 478.933594 609.007812 479.261719 609.214844 479.609375 C 609.261719 479.664062 609.316406 479.714844 609.375 479.753906 C 614.261719 484.625 619.148438 489.488281 624.03125 494.347656 C 624.675781 494.984375 624.722656 495.5 624.03125 496.152344 C 622.058594 498.089844 620.105469 500.046875 618.148438 501.996094 C 615.121094 505.015625 612.089844 508.035156 609.078125 511.070312 C 608.847656 511.300781 608.371094 511.546875 608.5625 511.921875 C 608.753906 512.296875 609.222656 512.082031 609.570312 512.082031 C 613.070312 512.082031 616.558594 512.074219 620.046875 512.074219 Z M 688.796875 523.082031 L 678.121094 523.082031 C 676.683594 523.082031 676.636719 523.128906 676.636719 524.519531 C 676.636719 531.601562 676.636719 538.679688 676.636719 545.761719 C 676.601562 546.558594 676.875 547.226562 677.460938 547.769531 C 681.199219 551.492188 684.902344 555.257812 688.632812 558.988281 C 691.707031 562.0625 694.777344 565.066406 697.804688 568.113281 C 698.242188 568.589844 698.78125 568.824219 699.425781 568.8125 C 706.644531 568.8125 713.871094 568.8125 721.101562 568.8125 C 722.03125 568.8125 722.375 568.484375 722.375 567.554688 C 722.375 560.382812 722.375 553.214844 722.375 546.046875 C 722.402344 545.441406 722.195312 544.929688 721.761719 544.511719 C 719.996094 542.722656 718.273438 540.894531 716.507812 539.132812 C 711.761719 534.328125 706.96875 529.5625 702.253906 524.726562 C 701.746094 524.136719 701.136719 523.691406 700.417969 523.390625 C 699.703125 523.089844 698.957031 522.96875 698.183594 523.019531 C 695.054688 523.1875 691.921875 523.082031 688.796875 523.082031 Z M 608.914062 467.394531 C 612.480469 467.394531 616.035156 467.394531 619.601562 467.394531 C 620.621094 467.394531 620.980469 467.089844 620.976562 466.042969 C 620.945312 458.875 620.945312 451.707031 620.976562 444.539062 C 620.992188 443.816406 620.738281 443.214844 620.207031 442.726562 C 616.820312 439.359375 613.484375 435.9375 610.089844 432.578125 C 606.695312 429.222656 603.269531 425.996094 600.105469 422.472656 C 599.574219 421.863281 598.90625 421.578125 598.101562 421.617188 C 590.933594 421.617188 583.742188 421.617188 576.527344 421.617188 C 575.628906 421.617188 575.226562 421.902344 575.234375 422.855469 C 575.234375 429.972656 575.234375 437.09375 575.234375 444.214844 C 575.222656 444.9375 575.476562 445.542969 576.003906 446.035156 C 582.761719 452.847656 589.507812 459.667969 596.242188 466.503906 C 596.796875 467.132812 597.492188 467.4375 598.332031 467.410156 C 601.863281 467.378906 605.390625 467.394531 608.90625 467.394531 Z M 688.695312 467.394531 C 692.222656 467.394531 695.738281 467.394531 699.265625 467.394531 C 700.097656 467.4375 700.796875 467.152344 701.363281 466.542969 C 708.144531 459.652344 714.945312 452.78125 721.753906 445.929688 C 722.183594 445.507812 722.390625 444.996094 722.367188 444.390625 C 722.367188 437.222656 722.367188 430.070312 722.367188 422.933594 C 722.367188 422.003906 722.023438 421.65625 721.09375 421.664062 C 713.863281 421.664062 706.636719 421.664062 699.417969 421.664062 C 698.8125 421.640625 698.300781 421.847656 697.882812 422.285156 C 696.140625 424.046875 694.378906 425.789062 692.628906 427.539062 C 687.507812 432.660156 682.386719 437.765625 677.265625 442.855469 C 676.800781 443.300781 676.578125 443.847656 676.597656 444.492188 C 676.597656 451.722656 676.597656 458.949219 676.597656 466.167969 C 676.597656 467.128906 676.96875 467.410156 677.882812 467.402344 C 681.5 467.375 685.125 467.394531 688.6875 467.394531 Z M 608.816406 523.082031 C 606.195312 523.082031 603.554688 523.25 600.949219 523.035156 C 600.335938 522.964844 599.722656 522.972656 599.109375 523.054688 C 598.496094 523.136719 597.902344 523.296875 597.328125 523.527344 C 596.753906 523.757812 596.214844 524.054688 595.71875 524.421875 C 595.21875 524.789062 594.769531 525.207031 594.375 525.683594 C 588.332031 532.082031 582.085938 538.257812 575.859375 544.511719 C 575.410156 544.925781 575.191406 545.4375 575.203125 546.046875 C 575.203125 553.214844 575.203125 560.40625 575.203125 567.621094 C 575.203125 568.503906 575.550781 568.820312 576.425781 568.820312 C 583.65625 568.820312 590.882812 568.820312 598.109375 568.820312 C 598.757812 568.847656 599.300781 568.625 599.746094 568.152344 C 600.84375 567.023438 601.972656 565.917969 603.085938 564.796875 C 608.78125 559.105469 614.472656 553.421875 620.160156 547.738281 C 620.707031 547.214844 620.964844 546.578125 620.929688 545.824219 C 620.929688 538.703125 620.929688 531.585938 620.929688 524.464844 C 620.929688 523.351562 620.523438 523.058594 619.476562 523.074219 C 615.996094 523.113281 612.402344 523.082031 608.839844 523.082031 Z M 720.386719 512.074219 C 725.066406 512.074219 729.734375 512.074219 734.402344 512.074219 C 734.890625 512.09375 735.355469 512.007812 735.804688 511.820312 C 736.25 511.636719 736.640625 511.363281 736.96875 511.007812 C 741.984375 506.015625 747.019531 501.046875 752.085938 496.097656 C 752.777344 495.429688 752.851562 494.9375 752.085938 494.242188 C 746.964844 489.289062 741.878906 484.3125 736.832031 479.316406 C 736.207031 478.652344 735.4375 478.339844 734.527344 478.371094 C 725.078125 478.371094 715.628906 478.371094 706.167969 478.371094 C 705.339844 478.339844 704.644531 478.628906 704.082031 479.238281 C 699.066406 484.289062 694.035156 489.320312 688.980469 494.332031 C 688.335938 494.976562 688.210938 495.386719 688.980469 496.078125 C 694.066406 501.105469 699.125 506.160156 704.15625 511.246094 C 704.695312 511.828125 705.363281 512.101562 706.15625 512.066406 C 710.925781 512.066406 715.671875 512.074219 720.410156 512.074219 Z M 631.964844 423.492188 C 631.964844 428.269531 631.964844 433.054688 631.964844 437.832031 C 631.921875 438.59375 632.179688 439.238281 632.734375 439.761719 C 637.855469 444.855469 642.960938 449.976562 648.058594 455.121094 C 648.65625 455.722656 649.046875 455.722656 649.648438 455.121094 C 654.765625 449.972656 659.886719 444.835938 665.007812 439.714844 C 665.457031 439.300781 665.671875 438.789062 665.652344 438.179688 C 665.652344 428.480469 665.652344 418.777344 665.652344 409.066406 C 665.667969 408.476562 665.46875 407.964844 665.0625 407.53125 C 664.515625 406.957031 663.972656 406.378906 663.417969 405.820312 C 658.808594 401.210938 654.253906 396.601562 649.714844 391.949219 C 649.007812 391.179688 648.578125 391.332031 647.964844 391.949219 C 642.910156 397.097656 637.847656 402.246094 632.773438 407.394531 C 632.214844 407.949219 631.957031 408.621094 632.003906 409.40625 C 631.972656 414.078125 631.964844 418.785156 631.964844 423.492188 Z M 631.964844 566.90625 C 631.964844 571.578125 631.964844 576.253906 631.964844 580.925781 C 631.933594 581.375 632.003906 581.808594 632.171875 582.226562 C 632.34375 582.640625 632.597656 583 632.933594 583.300781 C 633.992188 584.265625 634.96875 585.335938 636.007812 586.371094 C 640.050781 590.515625 644.097656 594.652344 648.140625 598.785156 C 648.222656 598.90625 648.324219 599.003906 648.457031 599.074219 C 648.585938 599.144531 648.722656 599.179688 648.871094 599.179688 C 649.019531 599.179688 649.15625 599.144531 649.285156 599.074219 C 649.417969 599.003906 649.519531 598.90625 649.601562 598.785156 C 650.246094 598.015625 650.929688 597.371094 651.605469 596.679688 C 655.992188 592.222656 660.382812 587.773438 664.777344 583.328125 C 665.398438 582.773438 665.703125 582.082031 665.691406 581.25 C 665.691406 571.683594 665.691406 562.121094 665.691406 552.558594 C 665.710938 551.835938 665.453125 551.230469 664.925781 550.738281 C 659.804688 545.671875 654.722656 540.585938 649.675781 535.484375 C 648.988281 534.792969 648.578125 534.871094 647.933594 535.523438 C 642.921875 540.578125 637.886719 545.613281 632.832031 550.625 C 632.222656 551.1875 631.9375 551.886719 631.972656 552.714844 C 631.972656 557.414062 631.957031 562.191406 631.964844 566.90625 Z M 577.085938 512.082031 C 581.863281 512.082031 586.648438 512.082031 591.425781 512.082031 C 592.183594 512.121094 592.824219 511.863281 593.347656 511.316406 C 598.417969 506.195312 603.5 501.113281 608.601562 496.070312 C 609.222656 495.445312 609.261719 495.039062 608.601562 494.402344 C 603.480469 489.34375 598.394531 484.261719 593.347656 479.15625 C 592.824219 478.613281 592.1875 478.355469 591.433594 478.386719 C 581.898438 478.386719 572.375 478.386719 562.855469 478.386719 C 562.058594 478.375 561.390625 478.65625 560.851562 479.238281 C 555.863281 484.261719 550.871094 489.277344 545.871094 494.285156 C 544.898438 495.277344 544.910156 495.292969 545.925781 496.304688 C 550.878906 501.269531 555.847656 506.207031 560.78125 511.191406 C 561.402344 511.859375 562.171875 512.167969 563.085938 512.121094 C 567.738281 512.058594 572.410156 512.074219 577.085938 512.082031 Z M 577.085938 512.082031 " fill-opacity="1" fill-rule="nonzero"/><path fill="#000000" d="M 281.953125 599.199219 L 285.265625 602.5625 L 293.40625 610.835938 C 293.730469 611.15625 293.886719 611.546875 293.875 612 C 293.875 620.746094 293.875 629.492188 293.875 638.238281 C 293.875 639.007812 293.550781 639.230469 292.851562 639.230469 L 266.84375 639.230469 C 266.335938 639.238281 265.90625 639.054688 265.5625 638.675781 C 263.195312 636.320312 260.839844 633.953125 258.457031 631.609375 C 256.921875 630.074219 255.386719 628.644531 253.847656 627.132812 C 253.652344 627.441406 253.59375 627.773438 253.671875 628.132812 C 253.671875 633.210938 253.671875 638.289062 253.671875 643.363281 C 253.710938 644.03125 253.488281 644.59375 252.996094 645.050781 C 246.851562 651.195312 240.707031 657.339844 234.5625 663.484375 C 234.101562 663.953125 233.792969 663.992188 233.328125 663.484375 C 227.140625 657.265625 220.941406 651.058594 214.722656 644.867188 C 214.328125 644.472656 214.148438 643.992188 214.1875 643.429688 C 214.1875 638.332031 214.1875 633.230469 214.1875 628.132812 L 214.1875 627.164062 C 213.71875 627.226562 213.523438 627.554688 213.292969 627.792969 C 209.710938 631.378906 206.125 634.960938 202.542969 638.546875 C 202.128906 639 201.617188 639.214844 201.003906 639.191406 C 192.433594 639.191406 183.863281 639.191406 175.296875 639.191406 C 174.0625 639.191406 173.890625 638.992188 173.992188 637.753906 C 174.0625 636.988281 174.085938 636.21875 174.085938 635.390625 C 174.085938 628.222656 174.085938 621.03125 174.085938 613.816406 C 174.113281 613.613281 174.113281 613.410156 174.085938 613.207031 C 173.683594 611.75 174.390625 610.804688 175.390625 609.820312 C 178.769531 606.496094 182.066406 603.085938 185.375 599.699219 C 185.542969 599.527344 185.78125 599.390625 185.835938 599.097656 C 185.574219 598.867188 185.253906 598.96875 184.96875 598.96875 C 179.914062 598.96875 174.867188 598.96875 169.820312 598.96875 C 169.152344 598.996094 168.589844 598.765625 168.132812 598.277344 C 162.039062 592.199219 155.9375 586.113281 149.828125 580.019531 C 149.0625 579.25 149.0625 579.25 149.828125 578.484375 C 155.925781 572.382812 162.019531 566.285156 168.109375 560.1875 C 168.5625 559.699219 169.125 559.472656 169.792969 559.503906 C 174.761719 559.503906 179.777344 559.503906 184.707031 559.503906 C 184.9375 559.503906 185.167969 559.503906 185.398438 559.503906 C 185.628906 559.503906 185.820312 559.3125 185.597656 559.058594 C 185.375 558.804688 184.992188 558.429688 184.691406 558.121094 C 181.277344 554.65625 177.859375 551.191406 174.4375 547.730469 C 174.050781 547.378906 173.882812 546.945312 173.9375 546.421875 C 174.160156 543.980469 174.023438 541.53125 174.039062 539.089844 C 174.039062 533.933594 174.039062 528.789062 174.039062 523.632812 C 174.039062 522.511719 173.871094 521.398438 173.953125 520.277344 C 174.023438 519.371094 174.039062 519.296875 174.976562 519.296875 L 184.078125 519.296875 C 189.660156 519.296875 195.246094 519.296875 200.828125 519.296875 C 201.53125 519.277344 202.113281 519.53125 202.574219 520.0625 C 206.089844 523.621094 209.632812 527.144531 213.164062 530.679688 C 213.363281 530.878906 213.5625 531.078125 213.769531 531.261719 C 213.980469 531.445312 214.101562 531.390625 214.125 531.140625 C 214.148438 530.886719 214.125 530.679688 214.125 530.449219 C 214.125 525.347656 214.125 520.246094 214.125 515.148438 C 214.09375 514.503906 214.320312 513.964844 214.800781 513.535156 C 220.945312 507.425781 227.058594 501.3125 233.140625 495.199219 C 233.871094 494.433594 233.910156 494.433594 234.578125 495.199219 C 240.675781 501.300781 246.777344 507.390625 252.875 513.472656 C 253.40625 513.960938 253.664062 514.5625 253.640625 515.285156 C 253.640625 520.332031 253.640625 525.386719 253.640625 530.433594 C 253.574219 530.796875 253.628906 531.144531 253.8125 531.46875 C 254.710938 530.609375 255.59375 529.777344 256.453125 528.925781 C 259.425781 525.992188 262.40625 523.058594 265.363281 520.101562 C 265.832031 519.578125 266.417969 519.320312 267.121094 519.332031 C 275.664062 519.332031 284.203125 519.332031 292.746094 519.332031 C 293.804688 519.332031 293.867188 519.386719 293.867188 520.460938 C 293.867188 529.105469 293.867188 537.75 293.867188 546.394531 C 293.882812 546.980469 293.675781 547.472656 293.242188 547.875 C 289.691406 551.460938 286.144531 555.042969 282.605469 558.628906 C 282.457031 558.769531 282.316406 558.917969 282.183594 559.074219 C 281.960938 559.34375 282.078125 559.488281 282.390625 559.519531 C 282.707031 559.550781 282.898438 559.519531 283.160156 559.519531 C 288.136719 559.519531 293.105469 559.519531 298.074219 559.519531 C 298.683594 559.5 299.195312 559.714844 299.613281 560.15625 C 305.757812 566.300781 311.902344 572.445312 318.046875 578.589844 C 318.574219 579.113281 318.574219 579.421875 318.046875 579.941406 C 311.902344 586.085938 305.757812 592.230469 299.613281 598.375 C 299.195312 598.820312 298.683594 599.03125 298.074219 599.015625 C 293.074219 599.015625 288.089844 599.015625 283.082031 599.015625 L 282.023438 599.015625 Z M 213.523438 591.1875 L 220.5625 591.1875 C 221.972656 591.1875 221.972656 591.1875 221.972656 592.5625 C 221.972656 597.402344 221.972656 602.246094 221.972656 607.09375 C 221.972656 607.332031 221.851562 607.671875 222.128906 607.777344 C 222.40625 607.886719 222.488281 607.554688 222.671875 607.425781 C 222.75 607.359375 222.820312 607.292969 222.886719 607.214844 C 226.34375 603.753906 229.796875 600.289062 233.242188 596.816406 C 233.390625 596.558594 233.613281 596.425781 233.910156 596.425781 C 234.207031 596.425781 234.429688 596.558594 234.578125 596.816406 C 237.605469 599.890625 240.652344 602.921875 243.695312 605.972656 C 244.25 606.53125 244.816406 607.078125 245.386719 607.632812 C 245.660156 607.898438 245.832031 607.847656 245.839844 607.445312 C 245.839844 607.238281 245.839844 607.039062 245.839844 606.832031 L 245.839844 592.238281 C 245.839844 591.269531 245.921875 591.195312 246.890625 591.195312 L 261.960938 591.195312 C 262.121094 591.195312 262.351562 591.257812 262.4375 591.054688 C 262.519531 590.855469 262.351562 590.71875 262.238281 590.59375 C 261.867188 590.242188 261.46875 589.910156 261.117188 589.550781 C 257.996094 586.441406 254.894531 583.320312 251.769531 580.210938 C 250.847656 579.296875 250.847656 579.21875 251.769531 578.285156 C 255.1875 574.894531 258.597656 571.496094 262 568.089844 C 262.167969 567.914062 262.488281 567.722656 262.40625 567.492188 C 262.320312 567.261719 261.914062 567.332031 261.636719 567.332031 L 247 567.332031 C 245.890625 567.332031 245.847656 567.277344 245.847656 566.15625 C 245.847656 561.265625 245.847656 556.371094 245.847656 551.46875 C 245.847656 551.222656 245.96875 550.871094 245.730469 550.761719 C 245.492188 550.65625 245.253906 550.984375 245.070312 551.171875 C 241.644531 554.589844 238.226562 558.015625 234.816406 561.445312 C 233.957031 562.308594 233.863281 562.308594 232.996094 561.445312 C 229.589844 558 226.171875 554.566406 222.742188 551.140625 C 222.558594 550.960938 222.382812 550.59375 222.082031 550.746094 C 221.78125 550.902344 221.972656 551.214844 221.972656 551.46875 C 221.972656 556.363281 221.972656 561.257812 221.972656 566.148438 C 221.972656 567.261719 221.921875 567.316406 220.808594 567.316406 L 206.214844 567.316406 C 205.9375 567.316406 205.539062 567.183594 205.445312 567.421875 C 205.351562 567.660156 205.730469 567.898438 205.882812 568.144531 C 205.882812 568.191406 205.953125 568.214844 205.992188 568.253906 C 209.453125 571.699219 212.902344 575.164062 216.382812 578.605469 C 216.84375 579.058594 216.875 579.429688 216.382812 579.886719 C 214.976562 581.253906 213.59375 582.652344 212.203125 584.035156 C 210.0625 586.171875 207.910156 588.3125 205.777344 590.464844 C 205.613281 590.625 205.277344 590.804688 205.414062 591.0625 C 205.550781 591.324219 205.875 591.1875 206.121094 591.1875 Z M 262.28125 599 L 254.710938 599 C 253.6875 599 253.65625 599 253.65625 600.011719 C 253.65625 605.035156 253.65625 610.058594 253.65625 615.082031 C 253.636719 615.644531 253.832031 616.117188 254.242188 616.503906 C 256.890625 619.136719 259.527344 621.808594 262.167969 624.460938 C 264.324219 626.617188 266.507812 628.761719 268.664062 630.925781 C 268.976562 631.261719 269.359375 631.425781 269.816406 631.417969 C 274.941406 631.417969 280.0625 631.417969 285.179688 631.417969 C 285.839844 631.417969 286.085938 631.179688 286.085938 630.519531 C 286.085938 625.445312 286.085938 620.371094 286.085938 615.296875 C 286.097656 614.867188 285.949219 614.503906 285.640625 614.207031 C 284.394531 612.929688 283.175781 611.632812 281.921875 610.367188 C 278.550781 606.957031 275.15625 603.574219 271.808594 600.144531 C 271.449219 599.730469 271.015625 599.417969 270.511719 599.207031 C 270.007812 598.996094 269.480469 598.910156 268.933594 598.945312 C 266.714844 599.058594 264.488281 598.992188 262.273438 599 Z M 205.628906 559.511719 C 208.15625 559.511719 210.683594 559.511719 213.203125 559.511719 C 213.933594 559.511719 214.1875 559.289062 214.1875 558.550781 C 214.1875 553.472656 214.1875 548.40625 214.1875 543.328125 C 214.199219 542.820312 214.019531 542.390625 213.648438 542.046875 C 211.242188 539.65625 208.886719 537.230469 206.472656 534.847656 C 204.0625 532.46875 201.636719 530.179688 199.394531 527.683594 C 199.015625 527.25 198.542969 527.050781 197.972656 527.074219 C 192.851562 527.074219 187.75 527.074219 182.671875 527.074219 C 182.035156 527.074219 181.75 527.277344 181.757812 527.953125 C 181.757812 533 181.757812 538.050781 181.757812 543.097656 C 181.746094 543.609375 181.925781 544.039062 182.304688 544.386719 C 187.097656 549.226562 191.878906 554.066406 196.652344 558.90625 C 197.054688 559.332031 197.550781 559.535156 198.140625 559.511719 C 200.628906 559.496094 203.125 559.511719 205.621094 559.511719 Z M 262.199219 559.511719 C 264.703125 559.511719 267.199219 559.511719 269.695312 559.511719 C 270.285156 559.542969 270.785156 559.339844 271.183594 558.90625 C 275.992188 554.019531 280.8125 549.15625 285.640625 544.3125 C 285.953125 544.011719 286.101562 543.644531 286.085938 543.214844 C 286.085938 538.144531 286.085938 533.070312 286.085938 527.996094 C 286.085938 527.335938 285.839844 527.097656 285.179688 527.097656 C 280.058594 527.097656 274.9375 527.097656 269.816406 527.097656 C 269.386719 527.082031 269.019531 527.226562 268.71875 527.535156 C 267.492188 528.789062 266.238281 530.023438 264.996094 531.269531 L 254.132812 542.128906 C 253.808594 542.445312 253.652344 542.828125 253.664062 543.28125 C 253.664062 548.402344 253.664062 553.523438 253.664062 558.644531 C 253.664062 559.320312 253.917969 559.519531 254.570312 559.519531 C 257.097656 559.488281 259.609375 559.503906 262.191406 559.503906 Z M 205.582031 599 C 203.726562 599 201.851562 599.121094 200 599 C 199.113281 598.898438 198.257812 599.015625 197.429688 599.351562 C 196.605469 599.683594 195.90625 600.195312 195.335938 600.878906 C 191.050781 605.410156 186.605469 609.796875 182.210938 614.230469 C 181.894531 614.523438 181.742188 614.882812 181.75 615.3125 C 181.75 620.433594 181.75 625.53125 181.75 630.613281 C 181.75 631.234375 181.996094 631.457031 182.617188 631.457031 L 197.980469 631.457031 C 198.4375 631.472656 198.824219 631.316406 199.140625 630.988281 C 199.90625 630.21875 200.722656 629.398438 201.511719 628.609375 C 205.546875 624.578125 209.582031 620.546875 213.617188 616.511719 C 214.007812 616.140625 214.191406 615.6875 214.171875 615.152344 C 214.171875 610.105469 214.171875 605.058594 214.171875 600.003906 C 214.171875 599.238281 213.886719 599.007812 213.140625 599.019531 C 210.621094 599.015625 208.101562 599 205.574219 598.992188 Z M 284.695312 591.203125 C 288.011719 591.203125 291.324219 591.203125 294.632812 591.203125 C 295.359375 591.226562 295.964844 590.972656 296.453125 590.433594 C 300.007812 586.894531 303.59375 583.375 307.207031 579.867188 C 307.691406 579.390625 307.730469 579.035156 307.207031 578.542969 C 303.59375 575.027344 299.988281 571.5 296.394531 567.960938 C 295.957031 567.488281 295.414062 567.265625 294.773438 567.292969 C 288.066406 567.292969 281.363281 567.292969 274.664062 567.292969 C 274.074219 567.265625 273.578125 567.46875 273.183594 567.90625 C 269.628906 571.492188 266.058594 575.058594 262.476562 578.605469 C 262.015625 579.066406 261.953125 579.375 262.476562 579.84375 C 266.058594 583.425781 269.644531 587.011719 273.226562 590.59375 C 273.609375 591.011719 274.078125 591.207031 274.640625 591.1875 C 277.960938 591.179688 281.324219 591.195312 284.6875 591.195312 Z M 221.972656 528.398438 C 221.972656 531.785156 221.972656 535.175781 221.972656 538.566406 C 221.933594 539.101562 222.105469 539.558594 222.488281 539.933594 C 226.121094 543.554688 229.742188 547.175781 233.355469 550.800781 C 233.78125 551.230469 234.054688 551.230469 234.476562 550.800781 C 238.105469 547.15625 241.742188 543.515625 245.394531 539.878906 C 245.710938 539.589844 245.863281 539.226562 245.855469 538.796875 C 245.855469 531.914062 245.855469 525.03125 245.855469 518.152344 C 245.867188 517.71875 245.726562 517.347656 245.429688 517.035156 C 245.046875 516.636719 244.664062 516.269531 244.265625 515.832031 C 241.023438 512.550781 237.765625 509.285156 234.554688 505.992188 C 234.046875 505.46875 233.742188 505.554688 233.3125 505.992188 C 229.726562 509.648438 226.140625 513.300781 222.558594 516.945312 C 222.152344 517.335938 221.964844 517.8125 221.996094 518.375 C 221.972656 521.699219 221.972656 525.03125 221.972656 528.398438 Z M 221.972656 630.089844 C 221.972656 633.410156 221.972656 636.71875 221.972656 640.074219 C 221.929688 640.75 222.160156 641.308594 222.664062 641.757812 C 223.433594 642.441406 224.101562 643.195312 224.816406 643.921875 L 233.417969 652.726562 C 233.476562 652.8125 233.550781 652.882812 233.640625 652.933594 C 233.734375 652.984375 233.832031 653.011719 233.9375 653.011719 C 234.042969 653.011719 234.140625 652.984375 234.234375 652.933594 C 234.324219 652.882812 234.398438 652.8125 234.457031 652.726562 C 234.910156 652.210938 235.390625 651.71875 235.875 651.226562 C 238.984375 648.066406 242.097656 644.914062 245.214844 641.765625 C 245.65625 641.371094 245.875 640.878906 245.867188 640.289062 C 245.867188 633.503906 245.867188 626.726562 245.867188 619.953125 C 245.890625 619.441406 245.710938 619.011719 245.339844 618.660156 C 241.730469 615.058594 238.121094 611.464844 234.53125 607.839844 C 234.039062 607.347656 233.765625 607.402344 233.296875 607.839844 C 229.738281 611.421875 226.167969 614.992188 222.589844 618.546875 C 222.160156 618.945312 221.953125 619.441406 221.972656 620.027344 C 221.972656 623.339844 221.972656 626.710938 221.972656 630.066406 Z M 183.054688 591.21875 C 186.441406 591.21875 189.835938 591.21875 193.226562 591.21875 C 193.757812 591.242188 194.210938 591.0625 194.585938 590.679688 C 198.167969 587.058594 201.777344 583.453125 205.40625 579.867188 C 205.84375 579.429688 205.875 579.097656 205.40625 578.683594 C 201.792969 575.097656 198.1875 571.496094 194.59375 567.875 C 194.222656 567.488281 193.769531 567.300781 193.234375 567.324219 C 186.484375 567.324219 179.730469 567.324219 172.972656 567.324219 C 172.40625 567.296875 171.929688 567.488281 171.542969 567.898438 C 168.003906 571.484375 164.464844 575.039062 160.917969 578.566406 C 160.222656 579.265625 160.234375 579.28125 160.917969 580.003906 C 164.4375 583.523438 167.964844 587.023438 171.457031 590.558594 C 171.898438 591.027344 172.4375 591.246094 173.078125 591.21875 C 176.425781 591.179688 179.730469 591.1875 183.054688 591.195312 Z M 183.054688 591.21875 " fill-opacity="1" fill-rule="nonzero"/><path fill="#000000" d="M 582.777344 208.753906 L 586.089844 212.117188 L 594.238281 220.398438 C 594.5625 220.71875 594.71875 221.109375 594.707031 221.566406 C 594.707031 230.3125 594.707031 239.058594 594.707031 247.804688 C 594.707031 248.570312 594.382812 248.792969 593.683594 248.792969 L 567.671875 248.792969 C 567.160156 248.800781 566.730469 248.617188 566.386719 248.242188 C 564.023438 245.882812 561.664062 243.515625 559.289062 241.175781 C 557.753906 239.675781 556.21875 238.210938 554.683594 236.695312 C 554.484375 237.007812 554.425781 237.34375 554.503906 237.703125 C 554.503906 242.773438 554.503906 247.847656 554.503906 252.925781 C 554.546875 253.59375 554.320312 254.160156 553.828125 254.617188 C 547.683594 260.761719 541.539062 266.90625 535.394531 273.050781 C 534.933594 273.519531 534.628906 273.554688 534.160156 273.050781 C 527.980469 266.828125 521.777344 260.621094 515.554688 254.429688 C 515.160156 254.035156 514.980469 253.554688 515.019531 252.996094 C 515.019531 247.894531 515.019531 242.796875 515.019531 237.695312 L 515.019531 236.726562 C 514.550781 236.789062 514.359375 237.125 514.128906 237.355469 C 510.542969 240.941406 506.957031 244.527344 503.375 248.109375 C 502.964844 248.566406 502.449219 248.78125 501.839844 248.753906 C 493.265625 248.753906 484.699219 248.753906 476.132812 248.753906 C 474.894531 248.753906 474.734375 248.554688 474.824219 247.320312 C 474.894531 246.550781 474.917969 245.746094 474.917969 244.953125 C 474.917969 237.785156 474.917969 230.59375 474.917969 223.378906 C 474.945312 223.175781 474.945312 222.972656 474.917969 222.769531 C 474.519531 221.3125 475.222656 220.367188 476.222656 219.382812 C 479.601562 216.058594 482.898438 212.648438 486.207031 209.261719 C 486.378906 209.09375 486.613281 208.953125 486.667969 208.660156 C 486.40625 208.429688 486.085938 208.53125 485.800781 208.53125 C 480.746094 208.53125 475.699219 208.53125 470.65625 208.53125 C 469.988281 208.558594 469.425781 208.328125 468.972656 207.839844 C 462.890625 201.730469 456.796875 195.632812 450.691406 189.542969 C 449.925781 188.777344 449.925781 188.777344 450.691406 188.007812 C 456.789062 181.910156 462.882812 175.8125 468.972656 169.71875 C 469.425781 169.226562 469.984375 168.996094 470.65625 169.027344 C 475.632812 169.027344 480.601562 169.027344 485.570312 169.027344 C 485.800781 169.027344 486.03125 169.027344 486.261719 169.027344 C 486.492188 169.027344 486.683594 168.835938 486.460938 168.582031 C 486.238281 168.332031 485.863281 167.953125 485.554688 167.648438 L 475.308594 157.253906 C 474.917969 156.90625 474.75 156.46875 474.800781 155.949219 C 475.023438 153.507812 474.886719 151.054688 474.902344 148.613281 C 474.902344 143.460938 474.902344 138.3125 474.902344 133.160156 C 474.902344 132.039062 474.734375 130.925781 474.816406 129.804688 C 474.886719 128.898438 474.902344 128.820312 475.839844 128.820312 C 478.910156 128.820312 481.90625 128.820312 484.941406 128.820312 C 490.523438 128.820312 496.109375 128.820312 501.699219 128.820312 C 502.394531 128.792969 502.972656 129.035156 503.4375 129.550781 C 506.953125 133.105469 510.496094 136.632812 514.027344 140.164062 C 514.226562 140.363281 514.425781 140.5625 514.632812 140.75 C 514.84375 140.933594 514.964844 140.878906 514.988281 140.625 C 515.011719 140.371094 514.988281 140.164062 514.988281 139.933594 C 514.988281 134.835938 514.988281 129.734375 514.988281 124.632812 C 514.964844 123.992188 515.1875 123.453125 515.664062 123.019531 C 521.808594 116.917969 527.921875 110.804688 534.003906 104.6875 C 534.773438 103.917969 534.773438 103.917969 535.441406 104.6875 C 541.539062 110.785156 547.640625 116.875 553.738281 122.960938 C 554.277344 123.441406 554.535156 124.046875 554.503906 124.773438 C 554.503906 129.820312 554.503906 134.871094 554.503906 139.917969 C 554.4375 140.285156 554.492188 140.628906 554.675781 140.957031 C 555.574219 140.09375 556.457031 139.265625 557.316406 138.414062 C 560.289062 135.480469 563.269531 132.546875 566.226562 129.589844 C 566.695312 129.0625 567.28125 128.808594 567.984375 128.820312 C 576.527344 128.820312 585.066406 128.820312 593.609375 128.820312 C 594.667969 128.820312 594.730469 128.875 594.730469 129.949219 C 594.730469 138.59375 594.730469 147.234375 594.730469 155.878906 C 594.75 156.46875 594.542969 156.964844 594.109375 157.363281 C 590.554688 160.945312 587.007812 164.53125 583.46875 168.113281 C 583.324219 168.257812 583.183594 168.40625 583.054688 168.558594 C 582.832031 168.828125 582.941406 168.976562 583.253906 169.007812 C 583.570312 169.035156 583.761719 169.007812 584.023438 169.007812 C 589 169.007812 593.96875 169.007812 598.945312 169.007812 C 599.554688 168.988281 600.066406 169.199219 600.484375 169.644531 C 606.628906 175.789062 612.773438 181.933594 618.917969 188.078125 C 619.445312 188.601562 619.445312 188.90625 618.917969 189.429688 C 612.773438 195.574219 606.628906 201.71875 600.484375 207.863281 C 600.066406 208.308594 599.554688 208.523438 598.945312 208.5 C 593.945312 208.5 588.960938 208.5 583.953125 208.5 L 582.894531 208.5 Z M 514.34375 200.742188 L 521.378906 200.742188 C 522.792969 200.742188 522.792969 200.742188 522.792969 202.117188 C 522.792969 206.960938 522.792969 211.804688 522.792969 216.648438 C 522.792969 216.886719 522.667969 217.226562 522.945312 217.332031 C 523.222656 217.441406 523.304688 217.109375 523.492188 216.980469 C 523.566406 216.917969 523.640625 216.847656 523.707031 216.773438 C 527.160156 213.304688 530.613281 209.839844 534.058594 206.371094 C 534.207031 206.109375 534.429688 205.976562 534.730469 205.976562 C 535.03125 205.976562 535.257812 206.109375 535.402344 206.371094 C 538.429688 209.445312 541.472656 212.480469 544.511719 215.527344 C 545.066406 216.089844 545.632812 216.632812 546.203125 217.1875 C 546.488281 217.457031 546.648438 217.402344 546.65625 217.003906 C 546.65625 216.796875 546.65625 216.597656 546.65625 216.390625 L 546.65625 201.796875 C 546.65625 200.835938 546.738281 200.75 547.707031 200.75 L 562.777344 200.75 C 562.945312 200.75 563.167969 200.820312 563.253906 200.613281 C 563.339844 200.40625 563.167969 200.273438 563.054688 200.152344 C 562.683594 199.796875 562.285156 199.46875 561.933594 199.105469 C 558.824219 196 555.707031 192.886719 552.585938 189.765625 C 551.664062 188.851562 551.664062 188.777344 552.585938 187.847656 C 556.003906 184.453125 559.414062 181.050781 562.816406 177.648438 C 562.984375 177.46875 563.308594 177.277344 563.222656 177.046875 C 563.136719 176.816406 562.730469 176.886719 562.453125 176.886719 L 547.824219 176.886719 C 546.71875 176.886719 546.671875 176.832031 546.671875 175.710938 C 546.671875 170.816406 546.671875 165.921875 546.671875 161.027344 C 546.671875 160.78125 546.792969 160.425781 546.554688 160.320312 C 546.316406 160.210938 546.078125 160.542969 545.894531 160.726562 C 542.449219 164.152344 539.027344 167.570312 535.632812 170.988281 C 534.773438 171.847656 534.679688 171.847656 533.820312 170.988281 C 530.410156 167.550781 526.992188 164.125 523.566406 160.703125 C 523.382812 160.527344 523.207031 160.15625 522.90625 160.3125 C 522.605469 160.464844 522.800781 160.78125 522.800781 161.035156 C 522.800781 165.929688 522.800781 170.820312 522.800781 175.710938 C 522.800781 176.824219 522.746094 176.878906 521.632812 176.878906 L 507.039062 176.878906 C 506.761719 176.878906 506.363281 176.75 506.269531 176.992188 C 506.179688 177.238281 506.554688 177.460938 506.707031 177.707031 C 506.707031 177.753906 506.785156 177.777344 506.816406 177.816406 C 510.28125 181.265625 513.726562 184.730469 517.207031 188.167969 C 517.667969 188.621094 517.699219 188.992188 517.207031 189.453125 C 515.800781 190.820312 514.417969 192.21875 513.035156 193.601562 C 510.886719 195.742188 508.734375 197.878906 506.601562 200.027344 C 506.4375 200.191406 506.101562 200.367188 506.238281 200.628906 C 506.378906 200.890625 506.707031 200.75 506.945312 200.75 Z M 563.101562 208.554688 L 555.527344 208.554688 C 554.503906 208.554688 554.472656 208.554688 554.472656 209.566406 C 554.472656 214.589844 554.472656 219.613281 554.472656 224.636719 C 554.453125 225.199219 554.648438 225.675781 555.058594 226.058594 C 557.707031 228.699219 560.34375 231.367188 562.984375 234.015625 L 569.492188 240.484375 C 569.800781 240.816406 570.179688 240.980469 570.636719 240.976562 C 575.753906 240.976562 580.875 240.976562 585.996094 240.976562 C 586.648438 240.976562 586.894531 240.738281 586.894531 240.074219 C 586.894531 234.996094 586.894531 229.921875 586.894531 224.851562 C 586.90625 224.425781 586.761719 224.0625 586.457031 223.761719 C 585.207031 222.488281 583.984375 221.195312 582.730469 219.921875 C 579.359375 216.511719 575.964844 213.132812 572.617188 209.699219 C 572.257812 209.285156 571.828125 208.972656 571.320312 208.761719 C 570.816406 208.554688 570.289062 208.46875 569.742188 208.507812 C 567.539062 208.625 565.304688 208.546875 563.101562 208.554688 Z M 506.445312 169.066406 C 508.972656 169.066406 511.5 169.066406 514.019531 169.066406 C 514.75 169.066406 515.003906 168.84375 515.003906 168.105469 C 515.003906 163.027344 515.003906 157.953125 515.003906 152.882812 C 515.015625 152.375 514.835938 151.949219 514.464844 151.601562 C 512.0625 149.210938 509.703125 146.785156 507.300781 144.40625 C 504.894531 142.023438 502.453125 139.734375 500.210938 137.238281 C 499.835938 136.808594 499.359375 136.605469 498.789062 136.632812 C 493.667969 136.632812 488.570312 136.632812 483.488281 136.632812 C 482.851562 136.632812 482.566406 136.832031 482.574219 137.507812 C 482.574219 142.5625 482.574219 147.609375 482.574219 152.652344 C 482.5625 153.167969 482.742188 153.597656 483.121094 153.945312 C 487.914062 158.78125 492.695312 163.621094 497.46875 168.460938 C 497.871094 168.890625 498.367188 169.09375 498.957031 169.066406 C 501.453125 169.050781 503.949219 169.066406 506.445312 169.066406 Z M 563.015625 169.066406 C 565.519531 169.066406 568.015625 169.066406 570.511719 169.066406 C 571.105469 169.097656 571.601562 168.898438 572.003906 168.460938 C 576.808594 163.574219 581.628906 158.710938 586.457031 153.867188 C 586.769531 153.566406 586.917969 153.203125 586.902344 152.769531 C 586.902344 147.699219 586.902344 142.628906 586.902344 137.554688 C 586.902344 136.894531 586.65625 136.65625 585.996094 136.65625 C 580.875 136.65625 575.753906 136.65625 570.636719 136.65625 C 570.203125 136.632812 569.839844 136.78125 569.542969 137.09375 C 568.308594 138.34375 567.054688 139.582031 565.8125 140.824219 C 562.195312 144.441406 558.578125 148.0625 554.949219 151.6875 C 554.625 152 554.46875 152.386719 554.480469 152.839844 C 554.480469 157.957031 554.480469 163.078125 554.480469 168.199219 C 554.480469 168.875 554.734375 169.074219 555.386719 169.074219 C 557.921875 169.042969 560.472656 169.058594 563 169.058594 Z M 506.402344 208.554688 C 504.542969 208.554688 502.667969 208.675781 500.816406 208.554688 C 499.9375 208.457031 499.085938 208.570312 498.265625 208.902344 C 497.441406 209.230469 496.746094 209.734375 496.175781 210.414062 C 491.898438 214.945312 487.445312 219.332031 483.050781 223.761719 C 482.738281 224.054688 482.582031 224.414062 482.589844 224.84375 C 482.589844 229.964844 482.589844 235.066406 482.589844 240.144531 C 482.589844 240.765625 482.835938 240.996094 483.457031 240.988281 C 488.578125 240.988281 493.699219 240.988281 498.820312 240.988281 C 499.277344 241.015625 499.664062 240.859375 499.980469 240.523438 C 500.746094 239.714844 501.5625 238.933594 502.351562 238.140625 C 506.386719 234.109375 510.421875 230.078125 514.457031 226.042969 C 514.851562 225.675781 515.035156 225.222656 515.011719 224.683594 C 515.011719 219.636719 515.011719 214.589844 515.011719 209.546875 C 515.011719 208.777344 514.726562 208.539062 513.980469 208.554688 C 511.445312 208.570312 508.925781 208.554688 506.402344 208.546875 Z M 585.511719 200.757812 C 588.832031 200.757812 592.140625 200.757812 595.453125 200.757812 C 596.175781 200.785156 596.785156 200.527344 597.273438 199.988281 C 600.832031 196.453125 604.414062 192.929688 608.023438 189.421875 C 608.507812 188.945312 608.546875 188.601562 608.023438 188.101562 C 604.40625 184.582031 600.800781 181.054688 597.210938 177.515625 C 596.769531 177.050781 596.230469 176.828125 595.589844 176.847656 C 588.882812 176.847656 582.179688 176.847656 575.480469 176.847656 C 574.890625 176.820312 574.398438 177.023438 574 177.460938 C 570.445312 181.046875 566.875 184.613281 563.292969 188.160156 C 562.832031 188.621094 562.769531 188.929688 563.292969 189.398438 C 566.875 192.984375 570.460938 196.566406 574.046875 200.152344 C 574.429688 200.558594 574.898438 200.753906 575.457031 200.734375 C 578.785156 200.734375 582.148438 200.75 585.511719 200.75 Z M 522.800781 137.9375 C 522.800781 141.332031 522.800781 144.722656 522.800781 148.105469 C 522.765625 148.640625 522.933594 149.097656 523.3125 149.472656 C 526.945312 153.09375 530.566406 156.714844 534.183594 160.34375 C 534.605469 160.773438 534.882812 160.773438 535.304688 160.34375 C 538.929688 156.695312 542.570312 153.054688 546.226562 149.421875 C 546.539062 149.125 546.6875 148.765625 546.679688 148.335938 C 546.679688 141.453125 546.679688 134.574219 546.679688 127.691406 C 546.695312 127.261719 546.554688 126.890625 546.257812 126.578125 C 545.871094 126.179688 545.488281 125.769531 545.097656 125.371094 C 541.855469 122.09375 538.597656 118.828125 535.378906 115.53125 C 534.875 115.011719 534.566406 115.09375 534.136719 115.53125 C 530.550781 119.1875 526.96875 122.839844 523.382812 126.484375 C 522.976562 126.875 522.789062 127.351562 522.820312 127.914062 C 522.808594 131.253906 522.800781 134.589844 522.800781 137.929688 Z M 522.800781 239.628906 C 522.800781 242.949219 522.800781 246.257812 522.800781 249.617188 C 522.753906 250.289062 522.984375 250.851562 523.492188 251.296875 C 524.257812 251.980469 524.933594 252.734375 525.640625 253.464844 L 534.242188 262.265625 C 534.300781 262.355469 534.375 262.425781 534.464844 262.476562 C 534.558594 262.523438 534.65625 262.550781 534.761719 262.550781 C 534.867188 262.550781 534.964844 262.523438 535.058594 262.476562 C 535.148438 262.425781 535.222656 262.355469 535.28125 262.265625 C 535.734375 261.75 536.21875 261.257812 536.703125 260.769531 C 539.808594 257.609375 542.921875 254.453125 546.042969 251.304688 C 546.480469 250.914062 546.699219 250.421875 546.695312 249.832031 C 546.695312 243.046875 546.695312 236.265625 546.695312 229.492188 C 546.714844 228.980469 546.539062 228.550781 546.164062 228.203125 C 542.554688 224.597656 538.945312 221.003906 535.355469 217.378906 C 534.875 216.886719 534.589844 216.941406 534.121094 217.378906 C 530.5625 220.964844 526.992188 224.53125 523.414062 228.085938 C 522.984375 228.488281 522.777344 228.980469 522.800781 229.570312 C 522.808594 232.894531 522.792969 236.257812 522.800781 239.601562 Z M 483.886719 200.75 C 487.285156 200.75 490.671875 200.75 494.058594 200.75 C 494.59375 200.777344 495.050781 200.597656 495.425781 200.214844 C 499.007812 196.59375 502.613281 192.988281 506.238281 189.398438 C 506.675781 188.960938 506.707031 188.628906 506.238281 188.214844 C 502.605469 184.636719 498.992188 181.027344 495.410156 177.386719 C 495.039062 176.996094 494.585938 176.8125 494.050781 176.832031 C 487.300781 176.832031 480.546875 176.832031 473.789062 176.832031 C 473.222656 176.808594 472.75 177 472.359375 177.410156 C 468.820312 180.992188 465.28125 184.550781 461.738281 188.078125 C 461.039062 188.777344 461.054688 188.792969 461.773438 189.511719 C 465.285156 193.03125 468.8125 196.535156 472.304688 200.066406 C 472.746094 200.535156 473.285156 200.753906 473.925781 200.726562 C 477.253906 200.734375 480.570312 200.75 483.886719 200.75 Z M 483.886719 200.75 " fill-opacity="1" fill-rule="nonzero"/><path fill="#000000" d="M 187.140625 300.277344 C 188.679688 301.859375 190.214844 303.449219 191.804688 305.023438 C 195.628906 308.917969 199.46875 312.804688 203.324219 316.691406 C 203.785156 317.144531 204.007812 317.691406 203.984375 318.335938 C 203.984375 330.671875 203.984375 343.007812 203.984375 355.339844 C 203.984375 356.378906 203.523438 356.730469 202.542969 356.730469 C 190.3125 356.730469 178.085938 356.730469 165.859375 356.730469 C 165.136719 356.742188 164.53125 356.488281 164.039062 355.964844 C 160.714844 352.628906 157.386719 349.300781 154.054688 345.980469 C 151.910156 343.867188 149.730469 341.792969 147.515625 339.664062 C 147.246094 340.101562 147.164062 340.574219 147.269531 341.078125 C 147.269531 348.238281 147.269531 355.386719 147.269531 362.546875 C 147.320312 363.488281 147.003906 364.285156 146.320312 364.933594 C 137.613281 373.582031 128.941406 382.253906 120.296875 390.941406 C 119.644531 391.59375 119.234375 391.65625 118.550781 390.941406 C 109.847656 382.171875 101.101562 373.417969 92.316406 364.6875 C 91.746094 364.132812 91.488281 363.457031 91.546875 362.660156 C 91.546875 355.492188 91.546875 348.300781 91.546875 341.085938 L 91.546875 339.71875 C 90.878906 339.8125 90.617188 340.28125 90.289062 340.601562 C 85.21875 345.65625 80.160156 350.71875 75.117188 355.792969 C 74.542969 356.429688 73.824219 356.742188 72.96875 356.722656 C 60.882812 356.722656 48.796875 356.722656 36.714844 356.722656 C 34.960938 356.722656 34.738281 356.441406 34.878906 354.695312 C 34.960938 353.589844 35 352.476562 35 351.363281 C 35 341.222656 35 331.082031 35 320.9375 C 35.039062 320.652344 35.039062 320.367188 35 320.078125 C 34.441406 318.019531 35.429688 316.683594 36.84375 315.300781 C 41.605469 310.609375 46.253906 305.800781 50.9375 301.03125 C 51.183594 300.785156 51.523438 300.59375 51.589844 300.179688 C 51.222656 299.855469 50.769531 300 50.371094 300 C 43.242188 300 36.121094 300 29.003906 300 C 28.0625 300.039062 27.269531 299.714844 26.628906 299.027344 C 18.027344 290.402344 9.421875 281.800781 0.8125 273.21875 C -0.277344 272.136719 -0.269531 272.136719 0.8125 271.039062 C 9.410156 262.441406 18.003906 253.84375 26.589844 245.246094 C 27.234375 244.558594 28.023438 244.238281 28.964844 244.277344 C 35.976562 244.277344 42.988281 244.277344 50 244.277344 C 50.324219 244.277344 50.65625 244.277344 50.976562 244.277344 C 51.429688 244.277344 51.570312 244 51.253906 243.640625 C 50.9375 243.277344 50.410156 242.765625 49.980469 242.328125 C 45.164062 237.441406 40.347656 232.558594 35.523438 227.671875 C 34.980469 227.179688 34.742188 226.566406 34.808594 225.835938 C 35.132812 222.386719 34.933594 218.921875 34.957031 215.480469 C 34.957031 208.222656 34.957031 200.957031 34.957031 193.691406 C 34.957031 192.109375 34.71875 190.542969 34.839844 188.953125 C 34.933594 187.679688 34.949219 187.570312 36.277344 187.570312 L 49.15625 187.570312 C 57.039062 187.570312 64.910156 187.570312 72.78125 187.570312 C 73.25 187.550781 73.699219 187.632812 74.128906 187.8125 C 74.558594 187.996094 74.929688 188.257812 75.242188 188.605469 C 80.203125 193.613281 85.226562 198.59375 90.179688 203.570312 C 90.464844 203.855469 90.742188 204.128906 91.03125 204.398438 C 91.324219 204.667969 91.5 204.582031 91.53125 204.214844 C 91.5625 203.847656 91.53125 203.570312 91.53125 203.246094 C 91.53125 196.058594 91.53125 188.859375 91.53125 181.671875 C 91.492188 180.757812 91.8125 179.988281 92.484375 179.367188 C 101.117188 170.765625 109.742188 162.148438 118.351562 153.515625 C 119.382812 152.484375 119.390625 152.484375 120.378906 153.515625 C 128.972656 162.105469 137.574219 170.695312 146.179688 179.28125 C 146.535156 179.609375 146.808594 179.996094 146.996094 180.441406 C 147.183594 180.886719 147.265625 181.351562 147.246094 181.832031 C 147.246094 188.960938 147.246094 196.082031 147.246094 203.199219 C 147.148438 203.714844 147.226562 204.203125 147.484375 204.660156 C 148.746094 203.445312 149.988281 202.277344 151.210938 201.082031 C 155.40625 196.945312 159.59375 192.789062 163.777344 188.621094 C 164.445312 187.90625 165.269531 187.5625 166.25 187.59375 C 178.304688 187.59375 190.351562 187.59375 202.394531 187.59375 C 203.886719 187.59375 203.933594 187.679688 203.933594 189.183594 C 203.933594 201.378906 203.933594 213.574219 203.933594 225.757812 C 203.953125 226.585938 203.664062 227.285156 203.054688 227.847656 C 198.039062 232.890625 193.039062 237.957031 188.054688 243.039062 C 187.847656 243.238281 187.648438 243.449219 187.464844 243.671875 C 187.148438 244.054688 187.304688 244.261719 187.75 244.292969 C 188.195312 244.324219 188.464844 244.292969 188.824219 244.292969 C 195.835938 244.292969 202.847656 244.292969 209.863281 244.292969 C 210.730469 244.257812 211.460938 244.554688 212.050781 245.191406 C 220.703125 253.894531 229.375 262.566406 238.066406 271.199219 C 238.832031 271.964844 238.832031 272.367188 238.066406 273.101562 C 229.359375 281.753906 220.6875 290.421875 212.050781 299.117188 C 211.457031 299.75 210.726562 300.046875 209.863281 300.007812 C 202.8125 300.007812 195.757812 300.007812 188.714844 300.007812 L 187.226562 300.007812 Z M 90.632812 288.972656 L 100.554688 288.972656 C 102.546875 288.972656 102.546875 288.972656 102.546875 290.90625 C 102.546875 297.734375 102.546875 304.5625 102.546875 311.398438 C 102.546875 311.738281 102.371094 312.214844 102.761719 312.367188 C 103.152344 312.519531 103.277344 312.050781 103.527344 311.875 C 103.640625 311.785156 103.742188 311.683594 103.835938 311.578125 C 108.707031 306.691406 113.570312 301.804688 118.429688 296.914062 C 119.121094 296.214844 119.636719 296.238281 120.320312 296.914062 C 124.589844 301.230469 128.871094 305.53125 133.167969 309.816406 C 133.9375 310.585938 134.75 311.355469 135.550781 312.121094 C 135.949219 312.503906 136.179688 312.421875 136.195312 311.859375 C 136.195312 311.578125 136.195312 311.285156 136.195312 311 C 136.195312 304.132812 136.195312 297.265625 136.195312 290.402344 C 136.195312 289.039062 136.3125 288.925781 137.679688 288.925781 L 152.15625 288.925781 C 154.460938 288.925781 156.6875 288.925781 158.953125 288.925781 C 159.183594 288.925781 159.5 289.019531 159.628906 288.734375 C 159.761719 288.449219 159.507812 288.257812 159.335938 288.089844 C 158.832031 287.582031 158.277344 287.121094 157.800781 286.613281 C 153.402344 282.230469 149.007812 277.839844 144.613281 273.441406 C 143.316406 272.152344 143.316406 272.042969 144.613281 270.730469 C 149.4375 265.949219 154.246094 261.152344 159.039062 256.34375 C 159.285156 256.105469 159.730469 255.828125 159.613281 255.5 C 159.5 255.167969 158.921875 255.277344 158.554688 255.277344 C 151.640625 255.277344 144.730469 255.277344 137.816406 255.277344 C 136.28125 255.277344 136.1875 255.207031 136.1875 253.625 C 136.1875 246.71875 136.1875 239.804688 136.1875 232.886719 C 136.1875 232.542969 136.355469 232.042969 136.019531 231.886719 C 135.679688 231.734375 135.34375 232.210938 135.089844 232.464844 C 130.261719 237.28125 125.441406 242.113281 120.625 246.957031 C 119.421875 248.179688 119.289062 248.171875 118.070312 246.957031 C 113.261719 242.121094 108.441406 237.289062 103.613281 232.464844 C 103.359375 232.210938 103.097656 231.695312 102.675781 231.910156 C 102.253906 232.125 102.53125 232.570312 102.53125 232.917969 C 102.53125 239.824219 102.53125 246.738281 102.53125 253.65625 C 102.53125 255.191406 102.460938 255.292969 100.886719 255.292969 L 80.300781 255.292969 C 79.917969 255.292969 79.359375 255.105469 79.1875 255.445312 C 79.019531 255.785156 79.589844 256.113281 79.804688 256.460938 C 79.847656 256.515625 79.898438 256.5625 79.957031 256.605469 C 84.839844 261.476562 89.730469 266.339844 94.621094 271.199219 C 95.265625 271.835938 95.3125 272.351562 94.621094 273.003906 C 92.636719 274.929688 90.695312 276.898438 88.734375 278.847656 C 85.714844 281.871094 82.695312 284.917969 79.679688 287.988281 C 79.449219 288.21875 78.972656 288.457031 79.164062 288.832031 C 79.359375 289.210938 79.828125 289.003906 80.164062 289.003906 C 83.652344 288.980469 87.136719 288.972656 90.632812 288.972656 Z M 159.382812 299.976562 L 148.707031 299.976562 C 147.269531 299.976562 147.226562 300.023438 147.226562 301.414062 C 147.226562 308.496094 147.226562 315.578125 147.226562 322.660156 C 147.195312 323.453125 147.46875 324.121094 148.046875 324.664062 C 151.796875 328.390625 155.496094 332.152344 159.230469 335.886719 C 162.300781 338.957031 165.375 341.960938 168.402344 345.011719 C 168.832031 345.488281 169.371094 345.71875 170.015625 345.703125 C 177.238281 345.703125 184.464844 345.703125 191.695312 345.703125 C 192.625 345.703125 192.972656 345.371094 192.972656 344.441406 C 192.972656 337.273438 192.972656 330.117188 192.972656 322.972656 C 192.988281 322.375 192.785156 321.863281 192.355469 321.4375 C 190.589844 319.648438 188.871094 317.820312 187.105469 316.0625 C 182.347656 311.253906 177.5625 306.484375 172.839844 301.652344 C 172.335938 301.066406 171.726562 300.625 171.011719 300.328125 C 170.296875 300.03125 169.554688 299.910156 168.785156 299.964844 C 165.644531 300.085938 162.507812 299.976562 159.382812 299.976562 Z M 79.503906 244.292969 C 83.066406 244.292969 86.625 244.292969 90.1875 244.292969 C 91.203125 244.292969 91.570312 243.984375 91.5625 242.941406 C 91.53125 235.773438 91.53125 228.617188 91.5625 221.472656 C 91.582031 220.753906 91.324219 220.148438 90.792969 219.660156 C 87.40625 216.296875 84.082031 212.871094 80.6875 209.515625 C 77.292969 206.15625 73.859375 202.933594 70.703125 199.398438 C 70.171875 198.792969 69.503906 198.507812 68.695312 198.554688 C 61.527344 198.554688 54.335938 198.554688 47.121094 198.554688 C 46.214844 198.554688 45.824219 198.832031 45.832031 199.789062 C 45.832031 206.90625 45.832031 214.027344 45.832031 221.152344 C 45.820312 221.871094 46.074219 222.476562 46.597656 222.972656 C 53.347656 229.796875 60.089844 236.621094 66.824219 243.441406 C 67.390625 244.054688 68.09375 244.339844 68.925781 244.292969 C 72.453125 244.277344 75.96875 244.292969 79.496094 244.292969 Z M 159.285156 244.292969 C 162.800781 244.292969 166.328125 244.292969 169.851562 244.292969 C 170.683594 244.335938 171.382812 244.050781 171.949219 243.441406 C 178.730469 236.554688 185.523438 229.679688 192.335938 222.824219 C 192.765625 222.402344 192.972656 221.890625 192.957031 221.289062 C 192.957031 214.121094 192.957031 206.964844 192.957031 199.820312 C 192.957031 198.898438 192.609375 198.554688 191.679688 198.5625 C 184.449219 198.5625 177.222656 198.5625 170 198.5625 C 169.394531 198.535156 168.882812 198.742188 168.460938 199.175781 C 166.71875 200.941406 164.953125 202.6875 163.199219 204.4375 C 158.082031 209.558594 152.976562 214.664062 147.886719 219.753906 C 147.417969 220.199219 147.195312 220.742188 147.21875 221.390625 C 147.21875 228.609375 147.21875 235.832031 147.21875 243.0625 C 147.21875 244.023438 147.585938 244.308594 148.492188 244.300781 C 152.078125 244.269531 155.679688 244.292969 159.277344 244.292969 Z M 79.402344 299.976562 C 76.777344 299.976562 74.140625 300.148438 71.53125 299.933594 C 70.917969 299.863281 70.304688 299.875 69.695312 299.957031 C 69.085938 300.042969 68.492188 300.199219 67.921875 300.433594 C 67.351562 300.664062 66.816406 300.960938 66.316406 301.324219 C 65.820312 301.6875 65.375 302.109375 64.980469 302.582031 C 58.941406 308.988281 52.691406 315.164062 46.46875 321.414062 C 46.019531 321.828125 45.800781 322.339844 45.816406 322.953125 C 45.816406 330.121094 45.816406 337.3125 45.816406 344.527344 C 45.816406 345.410156 46.160156 345.726562 47.035156 345.726562 C 54.265625 345.726562 61.496094 345.726562 68.71875 345.726562 C 69.367188 345.757812 69.910156 345.539062 70.347656 345.066406 C 71.453125 343.933594 72.574219 342.820312 73.695312 341.707031 C 79.386719 336.015625 85.078125 330.328125 90.769531 324.648438 C 91.320312 324.128906 91.574219 323.492188 91.539062 322.738281 C 91.539062 315.617188 91.539062 308.496094 91.539062 301.375 C 91.539062 300.253906 91.132812 299.972656 90.078125 299.984375 C 86.546875 300.007812 82.992188 299.976562 79.425781 299.976562 Z M 190.972656 288.972656 C 195.644531 288.972656 200.320312 288.972656 204.992188 288.972656 C 205.476562 288.988281 205.941406 288.90625 206.390625 288.71875 C 206.839844 288.53125 207.226562 288.261719 207.558594 287.902344 C 212.574219 282.910156 217.613281 277.941406 222.671875 272.996094 C 223.355469 272.328125 223.441406 271.835938 222.671875 271.136719 C 217.550781 266.179688 212.46875 261.207031 207.417969 256.214844 C 206.796875 255.542969 206.027344 255.226562 205.113281 255.269531 C 195.65625 255.269531 186.203125 255.269531 176.757812 255.269531 C 175.925781 255.234375 175.230469 255.523438 174.667969 256.136719 C 169.65625 261.179688 164.621094 266.210938 159.566406 271.230469 C 158.921875 271.875 158.839844 272.28125 159.566406 272.972656 C 164.652344 278 169.710938 283.054688 174.746094 288.132812 C 175.28125 288.71875 175.949219 288.996094 176.742188 288.964844 C 181.511719 288.964844 186.25 288.972656 190.996094 288.972656 Z M 102.546875 200.429688 C 102.546875 205.207031 102.546875 209.992188 102.546875 214.769531 C 102.492188 215.523438 102.738281 216.164062 103.277344 216.695312 C 108.394531 221.785156 113.515625 226.90625 118.636719 232.058594 C 119.234375 232.65625 119.628906 232.65625 120.21875 232.058594 C 125.339844 226.90625 130.460938 221.769531 135.582031 216.648438 C 136.027344 216.234375 136.242188 215.722656 136.226562 215.113281 C 136.226562 205.382812 136.226562 195.679688 136.226562 185.996094 C 136.238281 185.402344 136.042969 184.890625 135.632812 184.460938 C 135.089844 183.890625 134.542969 183.316406 133.992188 182.753906 C 129.421875 178.144531 124.828125 173.539062 120.289062 168.875 C 119.574219 168.105469 119.144531 168.269531 118.539062 168.875 C 113.484375 174.035156 108.417969 179.1875 103.34375 184.328125 C 102.785156 184.882812 102.53125 185.554688 102.578125 186.339844 C 102.5625 190.972656 102.546875 195.679688 102.546875 200.429688 Z M 102.546875 343.84375 C 102.546875 348.511719 102.546875 353.183594 102.546875 357.859375 C 102.519531 358.308594 102.589844 358.742188 102.761719 359.160156 C 102.933594 359.578125 103.183594 359.933594 103.519531 360.234375 C 104.582031 361.203125 105.550781 362.269531 106.59375 363.304688 L 118.730469 375.71875 C 118.808594 375.84375 118.914062 375.941406 119.042969 376.011719 C 119.171875 376.082031 119.3125 376.117188 119.457031 376.117188 C 119.605469 376.117188 119.746094 376.082031 119.875 376.011719 C 120.003906 375.941406 120.109375 375.84375 120.1875 375.71875 C 120.824219 374.988281 121.507812 374.296875 122.191406 373.613281 C 126.578125 369.160156 130.96875 364.707031 135.367188 360.257812 C 135.980469 359.703125 136.285156 359.011719 136.28125 358.183594 C 136.28125 348.617188 136.28125 339.054688 136.28125 329.496094 C 136.300781 328.773438 136.046875 328.164062 135.511719 327.675781 C 130.421875 322.605469 125.34375 317.519531 120.273438 312.421875 C 119.582031 311.730469 119.167969 311.808594 118.523438 312.460938 C 113.515625 317.511719 108.484375 322.542969 103.429688 327.550781 C 102.820312 328.121094 102.53125 328.816406 102.5625 329.648438 C 102.5625 334.3125 102.546875 339.058594 102.546875 343.804688 Z M 47.667969 288.972656 C 52.453125 288.972656 57.230469 288.972656 62.015625 288.972656 C 62.773438 289.007812 63.410156 288.753906 63.933594 288.203125 C 69.003906 283.082031 74.089844 278 79.1875 272.957031 C 79.8125 272.335938 79.847656 271.929688 79.1875 271.289062 C 74.066406 266.226562 68.984375 261.144531 63.933594 256.042969 C 63.410156 255.5 62.769531 255.242188 62.015625 255.277344 C 52.492188 255.277344 42.964844 255.277344 33.441406 255.277344 C 32.644531 255.242188 31.972656 255.511719 31.421875 256.089844 C 26.433594 261.113281 21.441406 266.128906 16.445312 271.136719 C 15.46875 272.121094 15.484375 272.144531 16.5 273.15625 C 21.453125 278.117188 26.421875 283.058594 31.351562 288.042969 C 31.976562 288.710938 32.742188 289.023438 33.65625 288.972656 C 38.328125 288.957031 43.011719 288.972656 47.667969 288.972656 Z M 47.667969 288.972656 " fill-opacity="1" fill-rule="nonzero"/></svg>