<?xml version="1.0" encoding="UTF-8"?>
<svg xmlns="http://www.w3.org/2000/svg" width="1080" height="1080" viewBox="0 0 1080 1080">
<g fill="#ffffff">
<path d="M 664.00,175.00 L 572.00,175.00 L 571.00,176.00 L 566.00,176.00 L 565.00,177.00 L 562.00,177.00 L 561.00,178.00 L 556.00,179.00 L 553.00,181.00 L 551.00,181.00 L 547.00,183.00 L 545.00,185.00 L 542.00,186.00 L 540.00,188.00 L 536.00,190.00 L 524.00,202.00 L 524.00,203.00 L 521.00,206.00 L 521.00,207.00 L 517.00,212.00 L 516.00,215.00 L 514.00,217.00 L 509.00,227.00 L 507.00,229.00 L 506.00,232.00 L 504.00,234.00 L 501.00,240.00 L 499.00,242.00 L 497.00,247.00 L 495.00,249.00 L 492.00,255.00 L 490.00,257.00 L 489.00,260.00 L 487.00,262.00 L 485.00,267.00 L 483.00,269.00 L 482.00,272.00 L 480.00,274.00 L 479.00,277.00 L 477.00,279.00 L 475.00,284.00 L 473.00,286.00 L 472.00,289.00 L 470.00,291.00 L 469.00,294.00 L 467.00,296.00 L 463.00,304.00 L 459.00,309.00 L 456.00,316.00 L 454.00,318.00 L 451.00,324.00 L 449.00,326.00 L 448.00,329.00 L 446.00,331.00 L 444.00,336.00 L 442.00,338.00 L 441.00,341.00 L 439.00,343.00 L 438.00,346.00 L 436.00,348.00 L 435.00,351.00 L 433.00,353.00 L 431.00,358.00 L 427.00,363.00 L 426.00,366.00 L 424.00,368.00 L 423.00,371.00 L 421.00,373.00 L 420.00,376.00 L 418.00,378.00 L 412.00,390.00 L 410.00,392.00 L 406.00,400.00 L 403.00,403.00 L 400.00,410.00 L 398.00,412.00 L 397.00,415.00 L 395.00,417.00 L 394.00,420.00 L 392.00,422.00 L 391.00,425.00 L 389.00,427.00 L 387.00,432.00 L 385.00,434.00 L 384.00,437.00 L 382.00,439.00 L 381.00,442.00 L 379.00,444.00 L 378.00,447.00 L 376.00,449.00 L 374.00,454.00 L 372.00,456.00 L 371.00,459.00 L 369.00,461.00 L 366.00,467.00 L 362.00,472.00 L 360.00,477.00 L 358.00,479.00 L 357.00,482.00 L 355.00,484.00 L 354.00,487.00 L 352.00,489.00 L 350.00,494.00 L 348.00,496.00 L 347.00,499.00 L 345.00,501.00 L 344.00,504.00 L 342.00,506.00 L 341.00,509.00 L 339.00,511.00 L 338.00,514.00 L 336.00,516.00 L 334.00,521.00 L 332.00,523.00 L 331.00,526.00 L 327.00,531.00 L 326.00,534.00 L 324.00,536.00 L 323.00,539.00 L 321.00,541.00 L 320.00,544.00 L 318.00,546.00 L 317.00,549.00 L 315.00,551.00 L 314.00,554.00 L 312.00,556.00 L 309.00,563.00 L 307.00,565.00 L 304.00,571.00 L 300.00,576.00 L 298.00,581.00 L 296.00,583.00 L 295.00,586.00 L 293.00,588.00 L 291.00,593.00 L 289.00,595.00 L 285.00,603.00 L 281.00,608.00 L 276.00,618.00 L 272.00,623.00 L 271.00,626.00 L 269.00,628.00 L 268.00,631.00 L 266.00,633.00 L 264.00,638.00 L 260.00,643.00 L 258.00,648.00 L 252.00,656.00 L 246.00,668.00 L 244.00,670.00 L 241.00,676.00 L 237.00,681.00 L 234.00,688.00 L 230.00,693.00 L 229.00,696.00 L 227.00,698.00 L 226.00,701.00 L 224.00,703.00 L 223.00,706.00 L 221.00,708.00 L 217.00,716.00 L 211.00,724.00 L 208.00,731.00 L 206.00,733.00 L 202.00,741.00 L 196.00,749.00 L 194.00,754.00 L 192.00,756.00 L 191.00,759.00 L 189.00,761.00 L 188.00,764.00 L 186.00,766.00 L 185.00,769.00 L 183.00,771.00 L 179.00,779.00 L 177.00,781.00 L 174.00,787.00 L 170.00,792.00 L 167.00,799.00 L 163.00,804.00 L 158.00,814.00 L 155.00,817.00 L 154.00,820.00 L 152.00,822.00 L 150.00,827.00 L 146.00,832.00 L 145.00,835.00 L 143.00,837.00 L 139.00,845.00 L 137.00,847.00 L 134.00,853.00 L 128.00,861.00 L 125.00,868.00 L 123.00,870.00 L 122.00,873.00 L 120.00,875.00 L 116.00,883.00 L 114.00,885.00 L 111.00,891.00 L 109.00,893.00 L 108.00,896.00 L 104.00,901.00 L 103.00,904.00 L 101.00,906.00 L 97.00,914.00 L 93.00,919.00 L 91.00,924.00 L 85.00,932.00 L 83.00,937.00 L 81.00,939.00 L 80.00,942.00 L 78.00,944.00 L 74.00,952.00 L 70.00,957.00 L 67.00,964.00 L 63.00,969.00 L 58.00,979.00 L 56.00,981.00 L 56.00,982.00 L 52.00,987.00 L 51.00,990.00 L 49.00,992.00 L 48.00,995.00 L 46.00,997.00 L 45.00,999.00 L 45.00,1002.00 L 169.00,1002.00 L 172.00,996.00 L 176.00,991.00 L 181.00,981.00 L 183.00,979.00 L 184.00,976.00 L 186.00,974.00 L 187.00,971.00 L 191.00,966.00 L 192.00,963.00 L 194.00,961.00 L 195.00,958.00 L 197.00,956.00 L 198.00,953.00 L 200.00,951.00 L 201.00,948.00 L 203.00,946.00 L 204.00,943.00 L 206.00,941.00 L 207.00,938.00 L 209.00,936.00 L 210.00,933.00 L 212.00,931.00 L 213.00,928.00 L 217.00,923.00 L 218.00,920.00 L 220.00,918.00 L 224.00,910.00 L 226.00,908.00 L 229.00,902.00 L 233.00,897.00 L 235.00,892.00 L 237.00,890.00 L 238.00,887.00 L 240.00,885.00 L 241.00,882.00 L 243.00,880.00 L 244.00,877.00 L 246.00,875.00 L 247.00,872.00 L 249.00,870.00 L 253.00,862.00 L 259.00,854.00 L 263.00,845.00 L 266.00,842.00 L 270.00,834.00 L 276.00,826.00 L 279.00,819.00 L 282.00,816.00 L 283.00,813.00 L 285.00,811.00 L 286.00,808.00 L 288.00,806.00 L 289.00,803.00 L 291.00,801.00 L 292.00,798.00 L 294.00,796.00 L 298.00,788.00 L 302.00,783.00 L 304.00,778.00 L 306.00,776.00 L 310.00,768.00 L 312.00,766.00 L 315.00,760.00 L 317.00,758.00 L 319.00,753.00 L 327.00,742.00 L 330.00,735.00 L 332.00,733.00 L 336.00,725.00 L 340.00,720.00 L 341.00,717.00 L 343.00,715.00 L 348.00,705.00 L 352.00,700.00 L 354.00,695.00 L 358.00,690.00 L 359.00,687.00 L 361.00,685.00 L 362.00,682.00 L 366.00,677.00 L 367.00,674.00 L 369.00,672.00 L 370.00,669.00 L 372.00,667.00 L 374.00,662.00 L 376.00,660.00 L 380.00,652.00 L 384.00,647.00 L 390.00,635.00 L 392.00,633.00 L 393.00,630.00 L 397.00,625.00 L 398.00,622.00 L 400.00,620.00 L 401.00,617.00 L 403.00,615.00 L 404.00,612.00 L 406.00,610.00 L 407.00,607.00 L 409.00,605.00 L 410.00,602.00 L 412.00,600.00 L 414.00,595.00 L 416.00,593.00 L 420.00,585.00 L 422.00,583.00 L 425.00,577.00 L 427.00,575.00 L 430.00,568.00 L 432.00,566.00 L 433.00,563.00 L 435.00,561.00 L 438.00,555.00 L 440.00,553.00 L 442.00,548.00 L 444.00,546.00 L 447.00,540.00 L 449.00,538.00 L 450.00,535.00 L 452.00,533.00 L 454.00,528.00 L 456.00,526.00 L 458.00,521.00 L 462.00,516.00 L 464.00,511.00 L 468.00,506.00 L 471.00,499.00 L 473.00,497.00 L 476.00,491.00 L 482.00,483.00 L 486.00,474.00 L 490.00,469.00 L 491.00,466.00 L 493.00,464.00 L 494.00,461.00 L 496.00,459.00 L 497.00,456.00 L 499.00,454.00 L 501.00,449.00 L 503.00,447.00 L 504.00,444.00 L 508.00,439.00 L 511.00,432.00 L 513.00,430.00 L 514.00,427.00 L 516.00,425.00 L 519.00,419.00 L 521.00,417.00 L 522.00,414.00 L 524.00,412.00 L 526.00,407.00 L 528.00,405.00 L 529.00,402.00 L 531.00,400.00 L 532.00,397.00 L 534.00,395.00 L 535.00,392.00 L 537.00,390.00 L 539.00,385.00 L 543.00,380.00 L 545.00,375.00 L 551.00,367.00 L 555.00,358.00 L 557.00,356.00 L 560.00,350.00 L 566.00,342.00 L 570.00,333.00 L 574.00,328.00 L 575.00,325.00 L 577.00,323.00 L 578.00,320.00 L 580.00,318.00 L 581.00,315.00 L 583.00,313.00 L 584.00,310.00 L 586.00,308.00 L 590.00,300.00 L 594.00,295.00 L 596.00,290.00 L 600.00,285.00 L 602.00,280.00 L 608.00,272.00 L 611.00,265.00 L 615.00,260.00 L 616.00,257.00 L 618.00,255.00 L 619.00,252.00 L 621.00,250.00 L 622.00,247.00 L 624.00,245.00 L 628.00,237.00 L 632.00,232.00 L 634.00,227.00 L 636.00,225.00 L 637.00,222.00 L 639.00,220.00 L 643.00,212.00 L 649.00,204.00 L 650.00,201.00 L 652.00,199.00 L 653.00,196.00 L 655.00,194.00 L 656.00,191.00 L 658.00,189.00 L 659.00,186.00 L 661.00,184.00 L 664.00,178.00 Z"/>
<path d="M 623.00,497.00 L 615.00,505.00 L 614.00,505.00 L 609.00,510.00 L 609.00,511.00 L 599.00,521.00 L 599.00,522.00 L 596.00,525.00 L 596.00,526.00 L 588.00,537.00 L 577.00,559.00 L 577.00,561.00 L 576.00,562.00 L 576.00,564.00 L 575.00,565.00 L 575.00,567.00 L 574.00,568.00 L 574.00,570.00 L 572.00,574.00 L 571.00,581.00 L 570.00,582.00 L 570.00,587.00 L 569.00,588.00 L 569.00,594.00 L 568.00,595.00 L 568.00,624.00 L 569.00,625.00 L 569.00,630.00 L 570.00,631.00 L 570.00,635.00 L 571.00,636.00 L 571.00,639.00 L 574.00,645.00 L 574.00,647.00 L 577.00,653.00 L 579.00,655.00 L 580.00,658.00 L 586.00,665.00 L 586.00,666.00 L 590.00,670.00 L 591.00,670.00 L 598.00,676.00 L 612.00,683.00 L 614.00,683.00 L 615.00,684.00 L 618.00,684.00 L 619.00,685.00 L 622.00,685.00 L 623.00,686.00 L 628.00,686.00 L 629.00,687.00 L 854.00,687.00 L 855.00,688.00 L 860.00,688.00 L 861.00,689.00 L 865.00,689.00 L 866.00,690.00 L 869.00,690.00 L 879.00,695.00 L 881.00,695.00 L 883.00,696.00 L 889.00,701.00 L 890.00,701.00 L 893.00,704.00 L 894.00,704.00 L 903.00,713.00 L 903.00,714.00 L 910.00,722.00 L 911.00,725.00 L 913.00,727.00 L 917.00,735.00 L 917.00,737.00 L 918.00,738.00 L 918.00,740.00 L 920.00,744.00 L 921.00,751.00 L 922.00,752.00 L 922.00,760.00 L 923.00,761.00 L 923.00,797.00 L 920.00,799.00 L 917.00,799.00 L 916.00,798.00 L 907.00,798.00 L 906.00,797.00 L 902.00,797.00 L 901.00,796.00 L 898.00,796.00 L 897.00,795.00 L 892.00,794.00 L 878.00,787.00 L 875.00,784.00 L 874.00,784.00 L 859.00,769.00 L 859.00,768.00 L 851.00,757.00 L 849.00,753.00 L 849.00,751.00 L 846.00,746.00 L 845.00,741.00 L 844.00,740.00 L 844.00,737.00 L 843.00,736.00 L 843.00,732.00 L 842.00,731.00 L 842.00,726.00 L 841.00,725.00 L 841.00,706.00 L 840.00,704.00 L 745.00,704.00 L 745.00,706.00 L 750.00,716.00 L 752.00,718.00 L 757.00,729.00 L 759.00,731.00 L 764.00,742.00 L 766.00,744.00 L 769.00,751.00 L 771.00,753.00 L 773.00,758.00 L 775.00,760.00 L 781.00,772.00 L 785.00,777.00 L 788.00,784.00 L 790.00,786.00 L 790.00,787.00 L 792.00,789.00 L 792.00,790.00 L 794.00,792.00 L 794.00,793.00 L 796.00,795.00 L 796.00,796.00 L 798.00,798.00 L 800.00,802.00 L 803.00,805.00 L 805.00,809.00 L 808.00,812.00 L 808.00,813.00 L 814.00,819.00 L 814.00,820.00 L 818.00,824.00 L 818.00,825.00 L 836.00,843.00 L 837.00,843.00 L 851.00,855.00 L 857.00,858.00 L 863.00,863.00 L 866.00,864.00 L 868.00,866.00 L 871.00,867.00 L 873.00,869.00 L 887.00,876.00 L 889.00,876.00 L 896.00,880.00 L 898.00,880.00 L 901.00,882.00 L 903.00,882.00 L 907.00,884.00 L 910.00,884.00 L 911.00,885.00 L 913.00,885.00 L 914.00,886.00 L 916.00,886.00 L 920.00,888.00 L 927.00,889.00 L 928.00,890.00 L 932.00,890.00 L 933.00,891.00 L 937.00,891.00 L 938.00,892.00 L 942.00,892.00 L 943.00,893.00 L 948.00,893.00 L 949.00,894.00 L 956.00,894.00 L 957.00,895.00 L 965.00,895.00 L 966.00,894.00 L 966.00,730.00 L 965.00,729.00 L 965.00,721.00 L 964.00,720.00 L 964.00,715.00 L 963.00,714.00 L 963.00,710.00 L 962.00,709.00 L 962.00,706.00 L 961.00,705.00 L 961.00,703.00 L 960.00,702.00 L 960.00,700.00 L 959.00,699.00 L 958.00,694.00 L 956.00,691.00 L 956.00,689.00 L 954.00,686.00 L 954.00,684.00 L 953.00,682.00 L 951.00,680.00 L 948.00,674.00 L 946.00,672.00 L 944.00,668.00 L 941.00,665.00 L 941.00,664.00 L 932.00,655.00 L 932.00,654.00 L 930.00,653.00 L 924.00,647.00 L 923.00,647.00 L 917.00,642.00 L 914.00,641.00 L 909.00,637.00 L 907.00,636.00 L 905.00,636.00 L 894.00,630.00 L 892.00,630.00 L 891.00,629.00 L 889.00,629.00 L 885.00,627.00 L 878.00,626.00 L 877.00,625.00 L 872.00,625.00 L 871.00,624.00 L 859.00,624.00 L 858.00,623.00 L 673.00,623.00 L 672.00,622.00 L 669.00,622.00 L 667.00,621.00 L 665.00,619.00 L 664.00,619.00 L 658.00,613.00 L 658.00,612.00 L 656.00,610.00 L 654.00,606.00 L 654.00,604.00 L 653.00,603.00 L 653.00,600.00 L 652.00,599.00 L 652.00,580.00 L 653.00,579.00 L 653.00,575.00 L 654.00,574.00 L 655.00,569.00 L 660.00,559.00 L 662.00,557.00 L 662.00,556.00 L 665.00,553.00 L 665.00,552.00 L 672.00,545.00 L 673.00,545.00 L 682.00,537.00 L 690.00,533.00 L 695.00,529.00 L 719.00,517.00 L 721.00,517.00 L 728.00,513.00 L 728.00,505.00 L 727.00,504.00 L 727.00,476.00 L 728.00,475.00 L 728.00,472.00 L 727.00,471.00 L 727.00,457.00 L 728.00,456.00 L 728.00,431.00 L 725.00,431.00 L 723.00,433.00 L 720.00,434.00 L 718.00,436.00 L 710.00,440.00 L 705.00,444.00 L 695.00,449.00 L 692.00,452.00 L 684.00,456.00 L 679.00,460.00 L 676.00,461.00 L 674.00,463.00 L 666.00,467.00 L 661.00,471.00 L 658.00,472.00 L 656.00,474.00 L 655.00,474.00 L 653.00,476.00 L 652.00,476.00 L 650.00,478.00 L 649.00,478.00 L 647.00,480.00 L 646.00,480.00 L 644.00,482.00 L 643.00,482.00 L 641.00,484.00 L 637.00,486.00 L 629.00,493.00 L 628.00,493.00 L 624.00,497.00 Z"/>
<path d="M 766.00,782.00 L 763.00,776.00 L 761.00,774.00 L 760.00,772.00 L 760.00,770.00 L 758.00,768.00 L 756.00,763.00 L 754.00,761.00 L 752.00,756.00 L 750.00,754.00 L 743.00,739.00 L 741.00,737.00 L 739.00,732.00 L 737.00,730.00 L 731.00,718.00 L 731.00,716.00 L 729.00,714.00 L 727.00,710.00 L 413.00,710.00 L 412.00,711.00 L 406.00,711.00 L 402.00,713.00 L 399.00,713.00 L 398.00,714.00 L 395.00,714.00 L 394.00,715.00 L 389.00,716.00 L 375.00,723.00 L 373.00,725.00 L 372.00,725.00 L 370.00,727.00 L 366.00,729.00 L 362.00,733.00 L 361.00,733.00 L 349.00,745.00 L 349.00,746.00 L 342.00,754.00 L 339.00,760.00 L 337.00,762.00 L 334.00,768.00 L 332.00,770.00 L 331.00,773.00 L 327.00,778.00 L 326.00,781.00 L 322.00,786.00 L 321.00,789.00 L 319.00,791.00 L 316.00,797.00 L 312.00,802.00 L 311.00,805.00 L 307.00,810.00 L 303.00,818.00 L 299.00,823.00 L 298.00,826.00 L 296.00,828.00 L 296.00,829.00 L 292.00,834.00 L 291.00,837.00 L 289.00,839.00 L 288.00,842.00 L 284.00,847.00 L 280.00,855.00 L 276.00,860.00 L 275.00,863.00 L 271.00,868.00 L 270.00,871.00 L 267.00,874.00 L 262.00,884.00 L 256.00,892.00 L 252.00,900.00 L 250.00,902.00 L 247.00,908.00 L 243.00,913.00 L 242.00,916.00 L 240.00,918.00 L 239.00,921.00 L 237.00,923.00 L 233.00,931.00 L 227.00,939.00 L 226.00,942.00 L 222.00,947.00 L 220.00,952.00 L 214.00,960.00 L 213.00,963.00 L 211.00,965.00 L 207.00,973.00 L 201.00,981.00 L 200.00,984.00 L 198.00,986.00 L 197.00,989.00 L 195.00,991.00 L 194.00,994.00 L 192.00,996.00 L 190.00,1000.00 L 190.00,1002.00 L 350.00,1002.00 L 350.00,999.00 L 347.00,995.00 L 344.00,988.00 L 342.00,986.00 L 341.00,983.00 L 337.00,978.00 L 335.00,973.00 L 333.00,971.00 L 332.00,968.00 L 330.00,966.00 L 326.00,958.00 L 322.00,953.00 L 321.00,950.00 L 319.00,948.00 L 318.00,945.00 L 316.00,943.00 L 315.00,940.00 L 313.00,938.00 L 309.00,930.00 L 305.00,925.00 L 300.00,915.00 L 297.00,912.00 L 296.00,909.00 L 294.00,907.00 L 291.00,901.00 L 291.00,897.00 L 294.00,893.00 L 294.00,892.00 L 296.00,890.00 L 297.00,887.00 L 302.00,881.00 L 305.00,874.00 L 308.00,871.00 L 312.00,863.00 L 314.00,861.00 L 317.00,855.00 L 319.00,853.00 L 320.00,850.00 L 328.00,839.00 L 330.00,834.00 L 336.00,826.00 L 337.00,823.00 L 339.00,821.00 L 341.00,817.00 L 345.00,813.00 L 345.00,812.00 L 353.00,804.00 L 354.00,804.00 L 357.00,801.00 L 358.00,801.00 L 364.00,796.00 L 374.00,791.00 L 376.00,791.00 L 377.00,790.00 L 379.00,790.00 L 383.00,788.00 L 390.00,787.00 L 391.00,786.00 L 398.00,786.00 L 399.00,785.00 L 766.00,785.00 Z"/>
<path d="M 712.00,113.00 L 712.00,254.00 L 713.00,255.00 L 713.00,258.00 L 716.00,261.00 L 717.00,261.00 L 724.00,268.00 L 725.00,268.00 L 732.00,275.00 L 733.00,275.00 L 742.00,284.00 L 742.00,285.00 L 746.00,290.00 L 749.00,296.00 L 749.00,300.00 L 750.00,301.00 L 750.00,607.00 L 768.00,607.00 L 769.00,608.00 L 771.00,608.00 L 772.00,607.00 L 797.00,607.00 L 798.00,608.00 L 814.00,608.00 L 815.00,607.00 L 841.00,607.00 L 841.00,243.00 L 840.00,242.00 L 840.00,237.00 L 839.00,236.00 L 839.00,233.00 L 838.00,232.00 L 838.00,230.00 L 837.00,229.00 L 836.00,224.00 L 834.00,222.00 L 832.00,217.00 L 830.00,215.00 L 828.00,211.00 L 812.00,195.00 L 811.00,195.00 L 808.00,192.00 L 807.00,192.00 L 798.00,183.00 L 797.00,183.00 L 787.00,174.00 L 786.00,174.00 L 780.00,168.00 L 779.00,168.00 L 774.00,163.00 L 773.00,163.00 L 768.00,158.00 L 767.00,158.00 L 761.00,152.00 L 760.00,152.00 L 756.00,148.00 L 755.00,148.00 L 751.00,144.00 L 750.00,144.00 L 743.00,137.00 L 742.00,137.00 L 739.00,134.00 L 738.00,134.00 L 730.00,126.00 L 729.00,126.00 L 726.00,123.00 L 725.00,123.00 L 718.00,116.00 L 717.00,116.00 L 714.00,113.00 Z"/>
<path d="M 672.00,799.00 L 672.00,801.00 L 676.00,809.00 L 678.00,811.00 L 680.00,816.00 L 682.00,818.00 L 687.00,828.00 L 691.00,833.00 L 693.00,838.00 L 695.00,840.00 L 696.00,843.00 L 698.00,845.00 L 699.00,848.00 L 701.00,850.00 L 709.00,866.00 L 711.00,868.00 L 712.00,871.00 L 716.00,876.00 L 718.00,881.00 L 720.00,883.00 L 721.00,886.00 L 723.00,888.00 L 726.00,895.00 L 730.00,900.00 L 732.00,905.00 L 734.00,907.00 L 736.00,912.00 L 738.00,914.00 L 739.00,917.00 L 741.00,919.00 L 743.00,924.00 L 747.00,929.00 L 751.00,938.00 L 755.00,943.00 L 758.00,950.00 L 762.00,955.00 L 763.00,958.00 L 770.00,966.00 L 770.00,967.00 L 783.00,980.00 L 787.00,982.00 L 791.00,986.00 L 797.00,989.00 L 799.00,991.00 L 807.00,995.00 L 812.00,996.00 L 818.00,999.00 L 821.00,999.00 L 822.00,1000.00 L 825.00,1000.00 L 826.00,1001.00 L 832.00,1001.00 L 833.00,1002.00 L 1026.00,1002.00 L 1026.00,1000.00 L 1023.00,994.00 L 1021.00,992.00 L 1018.00,986.00 L 1010.00,975.00 L 1008.00,970.00 L 1000.00,959.00 L 999.00,956.00 L 997.00,954.00 L 996.00,951.00 L 992.00,946.00 L 991.00,943.00 L 985.00,935.00 L 984.00,932.00 L 982.00,930.00 L 978.00,922.00 L 972.00,914.00 L 871.00,914.00 L 870.00,913.00 L 865.00,913.00 L 864.00,912.00 L 859.00,911.00 L 853.00,908.00 L 851.00,906.00 L 848.00,905.00 L 837.00,895.00 L 837.00,894.00 L 830.00,886.00 L 830.00,885.00 L 826.00,880.00 L 825.00,877.00 L 817.00,866.00 L 815.00,861.00 L 807.00,850.00 L 806.00,847.00 L 800.00,839.00 L 799.00,836.00 L 797.00,834.00 L 794.00,828.00 L 790.00,823.00 L 789.00,820.00 L 785.00,815.00 L 781.00,807.00 L 775.00,799.00 Z"/>
<path d="M 561.00,425.00 L 559.00,425.00 L 559.00,426.00 L 556.00,429.00 L 551.00,439.00 L 549.00,441.00 L 546.00,447.00 L 544.00,449.00 L 543.00,452.00 L 541.00,454.00 L 539.00,459.00 L 537.00,461.00 L 534.00,467.00 L 528.00,475.00 L 525.00,482.00 L 523.00,484.00 L 520.00,490.00 L 518.00,492.00 L 517.00,495.00 L 513.00,500.00 L 507.00,512.00 L 507.00,514.00 L 504.00,520.00 L 504.00,522.00 L 503.00,523.00 L 503.00,526.00 L 502.00,527.00 L 502.00,536.00 L 505.00,539.00 L 506.00,539.00 L 521.00,554.00 L 522.00,554.00 L 536.00,569.00 L 536.00,570.00 L 539.00,573.00 L 541.00,577.00 L 546.00,583.00 L 550.00,591.00 L 550.00,593.00 L 552.00,593.00 L 552.00,591.00 L 553.00,590.00 L 553.00,579.00 L 554.00,578.00 L 554.00,573.00 L 555.00,572.00 L 555.00,568.00 L 556.00,567.00 L 556.00,563.00 L 557.00,562.00 L 558.00,555.00 L 559.00,554.00 L 559.00,552.00 L 560.00,551.00 L 560.00,549.00 L 561.00,548.00 L 562.00,543.00 L 566.00,536.00 L 567.00,531.00 L 570.00,525.00 L 572.00,523.00 L 575.00,516.00 L 579.00,511.00 L 580.00,508.00 L 582.00,506.00 L 582.00,505.00 L 584.00,503.00 L 586.00,499.00 L 592.00,492.00 L 592.00,491.00 L 597.00,485.00 L 597.00,484.00 L 605.00,475.00 L 605.00,473.00 L 603.00,472.00 L 599.00,468.00 L 598.00,468.00 L 588.00,458.00 L 587.00,458.00 L 571.00,441.00 L 571.00,440.00 L 568.00,437.00 L 567.00,434.00 L 565.00,432.00 L 564.00,429.00 Z"/>
<path d="M 865.00,67.00 L 861.00,67.00 L 857.00,69.00 L 854.00,69.00 L 853.00,70.00 L 851.00,70.00 L 850.00,71.00 L 845.00,72.00 L 842.00,74.00 L 840.00,74.00 L 837.00,76.00 L 835.00,76.00 L 819.00,84.00 L 817.00,86.00 L 814.00,87.00 L 811.00,90.00 L 810.00,90.00 L 798.00,102.00 L 798.00,103.00 L 796.00,105.00 L 795.00,108.00 L 793.00,110.00 L 793.00,112.00 L 791.00,116.00 L 791.00,121.00 L 790.00,122.00 L 790.00,125.00 L 791.00,126.00 L 791.00,132.00 L 794.00,138.00 L 800.00,143.00 L 804.00,145.00 L 806.00,145.00 L 807.00,146.00 L 814.00,146.00 L 815.00,147.00 L 815.00,149.00 L 804.00,157.00 L 804.00,158.00 L 798.00,165.00 L 794.00,173.00 L 794.00,175.00 L 797.00,175.00 L 801.00,173.00 L 803.00,171.00 L 821.00,162.00 L 823.00,162.00 L 827.00,160.00 L 829.00,158.00 L 845.00,150.00 L 847.00,150.00 L 851.00,148.00 L 853.00,146.00 L 858.00,144.00 L 864.00,139.00 L 865.00,139.00 L 871.00,132.00 L 874.00,126.00 L 874.00,123.00 L 875.00,122.00 L 875.00,115.00 L 874.00,114.00 L 874.00,112.00 L 873.00,110.00 L 870.00,107.00 L 861.00,107.00 L 860.00,108.00 L 858.00,108.00 L 857.00,109.00 L 855.00,109.00 L 851.00,111.00 L 848.00,111.00 L 847.00,112.00 L 845.00,112.00 L 844.00,113.00 L 842.00,113.00 L 841.00,114.00 L 839.00,114.00 L 838.00,115.00 L 836.00,115.00 L 835.00,116.00 L 833.00,116.00 L 829.00,118.00 L 826.00,118.00 L 825.00,119.00 L 820.00,119.00 L 817.00,116.00 L 817.00,113.00 L 818.00,111.00 L 824.00,105.00 L 828.00,103.00 L 834.00,98.00 L 844.00,93.00 L 847.00,90.00 L 848.00,90.00 L 855.00,83.00 L 856.00,83.00 L 856.00,82.00 L 862.00,75.00 L 865.00,69.00 Z"/>
<path d="M 630.00,370.00 L 603.00,397.00 L 603.00,399.00 L 605.00,401.00 L 606.00,401.00 L 609.00,404.00 L 609.00,405.00 L 620.00,416.00 L 621.00,416.00 L 622.00,418.00 L 630.00,426.00 L 633.00,426.00 L 660.00,399.00 L 660.00,397.00 L 633.00,370.00 Z"/>
<path d="M 665.00,330.00 L 663.00,331.00 L 649.00,345.00 L 649.00,346.00 L 647.00,347.00 L 637.00,357.00 L 637.00,359.00 L 664.00,386.00 L 667.00,386.00 L 693.00,360.00 L 693.00,356.00 L 667.00,330.00 Z"/>
<path d="M 698.00,370.00 L 672.00,396.00 L 672.00,399.00 L 685.00,413.00 L 686.00,413.00 L 699.00,426.00 L 701.00,426.00 L 728.00,399.00 L 728.00,397.00 L 719.00,388.00 L 719.00,387.00 L 718.00,387.00 L 705.00,374.00 L 704.00,372.00 L 703.00,372.00 L 701.00,370.00 Z"/>
</g>
</svg>