<svg xmlns="http://www.w3.org/2000/svg" xmlns:xlink="http://www.w3.org/1999/xlink" width="1024" zoomAndPan="magnify" viewBox="0 0 768 767.999994" height="1024" preserveAspectRatio="xMidYMid meet" version="1.0"><path fill="#000000" d="M 91.433594 709.890625 C 71.710938 702.804688 56.824219 658.6875 52.703125 645.328125 C 49.742188 637.347656 24.097656 562.921875 64.894531 542.835938 C 60.144531 534.585938 53.777344 529.652344 46.425781 528.757812 C 36.742188 527.589844 26.25 533.597656 18.449219 544.808594 C 1.773438 569.109375 0.25 661.019531 60.324219 721.457031 C 70.902344 732.128906 86.054688 744.054688 97.621094 740.109375 C 109.367188 736.164062 116.179688 717.332031 119.320312 704.511719 C 108.203125 704.601562 98.789062 709.351562 98.609375 709.441406 C 96.367188 710.609375 93.765625 710.789062 91.433594 709.890625 Z M 91.433594 709.890625 " fill-opacity="1" fill-rule="nonzero"/><path fill="#000000" d="M 493.925781 569.914062 C 484.78125 565.703125 470.164062 570.273438 451.695312 583.007812 C 441.742188 589.910156 432.238281 597.085938 423.003906 604.078125 C 402.378906 619.683594 382.925781 634.476562 359.253906 645.507812 C 359.164062 645.597656 358.984375 645.597656 358.894531 645.6875 C 319.265625 664.070312 274.882812 667.566406 219.382812 656.804688 C 214.539062 655.910156 211.3125 651.15625 212.296875 646.316406 C 213.285156 641.472656 217.945312 638.246094 222.789062 639.230469 C 274.703125 649.273438 314.152344 646.402344 350.464844 629.816406 C 368.308594 615.289062 376.019531 602.375 371.625 594.394531 C 365.621094 583.636719 340.605469 579.332031 326.976562 584.082031 C 292.902344 596.097656 236.328125 593.050781 192.484375 557.988281 C 162.535156 534.046875 123.355469 534.316406 72.695312 559.066406 C 50.101562 570.09375 63.191406 622.371094 69.558594 639.859375 C 76.101562 661.199219 87.132812 684.960938 94.84375 691.597656 C 100.132812 689.535156 109.277344 686.664062 119.679688 686.664062 C 130.976562 686.664062 143.707031 690.074219 154.46875 701.640625 C 174.640625 723.25 237.132812 750.78125 279.007812 743.066406 C 321.683594 735.175781 404.980469 694.019531 432.597656 667.207031 C 456.175781 644.253906 495.089844 599.957031 505.851562 587.671875 C 504.683594 582.378906 501.546875 573.324219 493.925781 569.914062 Z M 493.925781 569.914062 " fill-opacity="1" fill-rule="nonzero"/><path fill="#000000" d="M 321.148438 567.136719 C 342.308594 559.695312 376.648438 566.238281 387.40625 585.609375 C 390.367188 590.898438 392.160156 597.714844 390.1875 606.140625 C 397.539062 600.941406 404.800781 595.382812 412.242188 589.734375 C 421.566406 582.648438 431.25 575.296875 441.5625 568.210938 C 447.839844 563.90625 453.847656 560.320312 459.585938 557.632812 C 459.765625 543.015625 457.253906 473.429688 404.441406 419.179688 C 403.546875 419.449219 402.738281 419.71875 401.84375 419.988281 C 389.46875 423.664062 379.246094 424.917969 371 424.917969 C 354.234375 424.917969 345.804688 419.71875 344.550781 418.820312 C 344.28125 418.640625 343.921875 418.375 343.652344 418.195312 C 342.753906 417.476562 335.222656 410.484375 336.480469 398.109375 C 337.105469 391.472656 340.335938 384.65625 345.894531 377.753906 C 345.804688 377.753906 345.714844 377.664062 345.714844 377.664062 C 344.371094 376.945312 343.113281 376.40625 341.859375 375.871094 C 229.066406 426.980469 224.222656 536.917969 224.3125 557.363281 C 260.894531 576.191406 300.523438 574.398438 321.148438 567.136719 Z M 411.4375 482.488281 C 415.738281 479.976562 421.210938 481.320312 423.71875 485.625 C 442.460938 517.28125 439.949219 551.445312 439.859375 552.878906 C 439.5 557.542969 435.554688 561.128906 430.894531 561.128906 C 430.625 561.128906 430.445312 561.128906 430.175781 561.128906 C 425.246094 560.769531 421.566406 556.375 421.925781 551.445312 C 421.925781 551.175781 424.078125 521.316406 408.296875 494.773438 C 405.789062 490.46875 407.132812 485 411.4375 482.488281 Z M 260.265625 519.609375 C 259.550781 519.609375 258.921875 519.519531 258.207031 519.34375 C 253.363281 518.175781 250.40625 513.335938 251.570312 508.582031 C 252.019531 506.789062 262.417969 464.375 292.277344 434.515625 C 295.773438 431.015625 301.421875 431.015625 304.917969 434.515625 C 308.414062 438.011719 308.414062 443.660156 304.917969 447.15625 C 278.648438 473.429688 269.144531 512.257812 269.054688 512.707031 C 267.976562 516.832031 264.300781 519.609375 260.265625 519.609375 Z M 260.265625 519.609375 " fill-opacity="1" fill-rule="nonzero"/><path fill="#000000" d="M 766.765625 167.65625 C 761.742188 82.558594 692.253906 22.480469 662.9375 18.714844 C 651.460938 17.28125 641.597656 21.046875 636.039062 29.117188 C 629.941406 37.902344 629.492188 50.1875 634.691406 62.472656 C 653.34375 65.972656 668.765625 85.789062 689.925781 113.046875 C 711.710938 141.023438 720.5 173.304688 713.773438 199.757812 C 724.804688 206.035156 744.707031 214.554688 755.824219 208.1875 C 766.496094 202.179688 767.660156 182.898438 766.765625 167.65625 Z M 766.765625 167.65625 " fill-opacity="1" fill-rule="nonzero"/><path fill="#000000" d="M 349.570312 359.460938 C 397.628906 336.054688 408.207031 301.355469 410.359375 283.152344 L 379.515625 294.988281 C 375.304688 296.601562 370.550781 294.808594 368.398438 290.863281 L 349.570312 255.800781 L 330.742188 290.863281 C 328.589844 294.808594 323.835938 296.601562 319.625 294.988281 L 288.691406 283.152344 C 290.753906 301.265625 301.242188 335.878906 349.570312 359.460938 Z M 349.570312 359.460938 " fill-opacity="1" fill-rule="nonzero"/><path fill="#000000" d="M 591.027344 296.871094 C 607.527344 272.929688 627.96875 243.25 664.820312 228.632812 C 681.585938 221.996094 692.164062 211.058594 696.289062 196.082031 C 701.9375 175.277344 694.136719 147.75 675.847656 124.167969 C 641.6875 80.226562 633.976562 73.324219 614.339844 84.980469 L 491.503906 130.800781 C 471.597656 135.914062 451.515625 136.003906 433.851562 136.09375 C 415.023438 136.183594 398.792969 136.273438 388.125 142.011719 C 370.28125 151.515625 340.425781 179.042969 329.128906 256.519531 L 341.859375 232.847656 C 344.996094 227.019531 354.5 227.019531 357.640625 232.847656 L 378.980469 272.570312 C 384.269531 260.375 394.757812 237.0625 404.800781 220.742188 C 412.871094 207.648438 424.527344 199.308594 437.707031 197.15625 C 448.289062 195.453125 458.507812 198.144531 465.859375 204.421875 C 484.421875 220.203125 486.75 245.757812 472.945312 282.433594 C 456.714844 325.746094 397.808594 360.445312 395.296875 361.882812 C 360.507812 381.609375 355.128906 394.699219 354.5 399.453125 C 354.144531 401.964844 354.859375 403.578125 355.308594 404.386719 C 358.355469 405.730469 371.449219 410.394531 396.820312 402.859375 C 420.132812 395.957031 438.515625 386.003906 457.882812 375.421875 C 466.308594 370.847656 475.007812 366.097656 484.421875 361.523438 C 497.0625 355.246094 509.257812 351.660156 520.914062 348.25 C 538.398438 343.050781 553.460938 338.65625 567.535156 326.460938 C 575.425781 319.46875 582.957031 308.4375 591.027344 296.871094 Z M 591.027344 296.871094 " fill-opacity="1" fill-rule="nonzero"/><path fill="#000000" d="M 106.050781 165.414062 C 126.132812 170.972656 142.003906 186.847656 147.5625 206.933594 C 148.90625 211.953125 153.390625 215.359375 158.679688 215.359375 C 163.972656 215.359375 168.363281 211.953125 169.800781 206.933594 C 175.359375 186.847656 191.226562 170.972656 211.3125 165.414062 C 216.332031 164.070312 219.742188 159.585938 219.652344 154.296875 C 219.5625 149.003906 216.242188 144.609375 211.222656 143.175781 C 191.136719 137.617188 175.269531 121.746094 169.710938 101.660156 C 168.363281 96.636719 163.882812 93.230469 158.589844 93.230469 C 153.300781 93.230469 148.90625 96.636719 147.472656 101.660156 C 141.914062 121.746094 126.042969 137.617188 105.960938 143.175781 C 100.9375 144.523438 97.53125 149.003906 97.53125 154.296875 C 97.53125 159.585938 101.027344 163.980469 106.050781 165.414062 Z M 106.050781 165.414062 " fill-opacity="1" fill-rule="nonzero"/><path fill="#000000" d="M 699.609375 436.757812 C 679.523438 431.195312 663.652344 415.324219 658.09375 395.238281 C 656.75 390.21875 652.265625 386.808594 646.976562 386.808594 C 641.6875 386.808594 637.382812 390.308594 635.949219 395.238281 C 630.390625 415.324219 614.519531 431.195312 594.433594 436.757812 C 589.414062 438.101562 586.007812 442.585938 586.007812 447.875 C 586.007812 453.164062 589.414062 457.558594 594.433594 458.992188 C 614.519531 464.554688 630.390625 480.425781 635.949219 500.511719 C 637.292969 505.53125 641.777344 508.941406 647.066406 508.941406 C 652.355469 508.941406 656.75 505.53125 658.183594 500.511719 C 663.742188 480.425781 679.613281 464.554688 699.699219 458.992188 C 704.71875 457.648438 708.125 453.164062 708.125 447.875 C 708.035156 442.585938 704.628906 438.191406 699.609375 436.757812 Z M 699.609375 436.757812 " fill-opacity="1" fill-rule="nonzero"/><path fill="#000000" d="M 131.78125 397.121094 C 136.714844 397.121094 140.75 393.085938 140.75 388.15625 L 140.75 372.015625 L 158.589844 372.015625 C 163.523438 372.015625 167.558594 367.980469 167.558594 363.046875 C 167.558594 358.117188 163.523438 354.082031 158.589844 354.082031 L 140.75 354.082031 L 140.75 337.941406 C 140.75 333.007812 136.714844 328.972656 131.78125 328.972656 C 126.851562 328.972656 122.816406 333.007812 122.816406 337.941406 L 122.816406 354.082031 L 108.382812 354.082031 C 103.449219 354.082031 99.414062 358.117188 99.414062 363.046875 C 99.414062 367.980469 103.449219 372.015625 108.382812 372.015625 L 122.816406 372.015625 L 122.816406 388.15625 C 122.816406 393.085938 126.851562 397.121094 131.78125 397.121094 Z M 131.78125 397.121094 " fill-opacity="1" fill-rule="nonzero"/><path fill="#000000" d="M 629.3125 687.742188 L 611.472656 687.742188 L 611.472656 671.601562 C 611.472656 666.667969 607.4375 662.632812 602.503906 662.632812 C 597.574219 662.632812 593.539062 666.667969 593.539062 671.601562 L 593.539062 687.742188 L 579.101562 687.742188 C 574.171875 687.742188 570.136719 691.777344 570.136719 696.710938 C 570.136719 701.640625 574.171875 705.675781 579.101562 705.675781 L 593.539062 705.675781 L 593.539062 721.816406 C 593.539062 726.75 597.574219 730.785156 602.503906 730.785156 C 607.4375 730.785156 611.472656 726.75 611.472656 721.816406 L 611.472656 705.675781 L 629.3125 705.675781 C 634.246094 705.675781 638.28125 701.640625 638.28125 696.710938 C 638.28125 691.777344 634.246094 687.742188 629.3125 687.742188 Z M 629.3125 687.742188 " fill-opacity="1" fill-rule="nonzero"/></svg>