<svg xmlns="http://www.w3.org/2000/svg" xmlns:xlink="http://www.w3.org/1999/xlink" zoomAndPan="magnify" viewBox="0 0 768 767.999994" preserveAspectRatio="xMidYMid meet" version="1.0"><defs><linearGradient id="islamic-gradient" x1="0" y1="0" x2="1" y2="1"><stop offset="0" stop-color="#0F766E"/><stop offset="0.52" stop-color="#16A34A"/><stop offset="1" stop-color="#D4A72C"/></linearGradient></defs><defs><clipPath id="14a4418463"><path d="M 40.320312 154 L 727.320312 154 L 727.320312 768 L 40.320312 768 Z M 40.320312 154 " clip-rule="nonzero"/></clipPath></defs><path fill="url(#islamic-gradient)" d="M 361.914062 1.652344 C 327.847656 8.300781 297.523438 19.664062 275.78125 34.046875 C 271.308594 37.066406 266.355469 41.175781 264.785156 43.230469 C 258.867188 51.089844 248.476562 92.183594 242.921875 129.894531 C 239.417969 153.585938 237.484375 186.703125 239.660156 186.703125 C 240.382812 186.703125 241.351562 186.097656 241.832031 185.375 C 243.402344 182.714844 264.90625 169.417969 276.867188 163.617188 C 308.882812 148.144531 343.914062 140.53125 383.660156 140.53125 C 434.519531 140.53125 479.945312 153.585938 517.152344 178.847656 C 523.554688 183.199219 529.113281 186.703125 529.472656 186.703125 C 530.199219 186.703125 528.992188 168.210938 527.300781 151.652344 C 523.917969 119.136719 511.351562 61.121094 504.949219 48.066406 C 500.964844 39.726562 491.539062 32.714844 471.246094 22.925781 C 433.554688 4.554688 390.0625 -3.785156 361.914062 1.652344 Z M 361.914062 1.652344 " fill-opacity="1" fill-rule="nonzero"/><g clip-path="url(#14a4418463)"><path fill="url(#islamic-gradient)" d="M 357.082031 154.792969 C 355.390625 155.035156 349.230469 155.882812 343.191406 156.605469 C 312.261719 160.355469 274.089844 174.375 250.773438 190.449219 C 237.484375 199.636719 238.449219 197.824219 239.898438 211.480469 C 240.503906 218.128906 241.351562 225.019531 241.710938 226.710938 C 242.4375 229.613281 242.074219 229.972656 237.484375 230.578125 C 224.679688 232.269531 220.691406 245.808594 226.007812 269.5 C 233.859375 304.792969 249.203125 328.601562 265.753906 331.019531 L 271.1875 331.867188 L 274.449219 341.777344 C 278.679688 354.710938 285.808594 370.183594 292.449219 380.820312 C 298.25 390.003906 298.976562 394.597656 297.164062 408.253906 C 296.4375 413.695312 296.316406 413.816406 290.398438 415.144531 C 287.015625 415.992188 283.148438 417.925781 281.335938 419.859375 C 279.644531 421.550781 275.054688 429.769531 271.1875 438.109375 L 264.183594 453.21875 L 232.410156 466.03125 C 174.179688 489.359375 127.429688 510.148438 116.554688 517.277344 C 106.289062 524.167969 93 538.191406 86.71875 548.824219 C 80.195312 559.824219 72.460938 580.371094 62.917969 611.796875 C 54.824219 638.632812 44.433594 678.519531 41.414062 694.59375 C 39.359375 705.835938 38.878906 705.230469 55.066406 712.964844 C 110.03125 738.953125 217.792969 760.828125 320.839844 766.875 C 348.144531 768.445312 415.433594 768.445312 444.667969 766.875 C 515.824219 763.003906 584.320312 752.367188 647.019531 735.566406 C 679.035156 726.988281 709.355469 715.988281 722.886719 708.132812 C 728.925781 704.625 728.925781 707.042969 722.402344 678.277344 C 713.585938 639.113281 698.242188 587.503906 688.457031 564.417969 C 680.484375 545.199219 666.953125 528.398438 650.765625 517.277344 C 641.101562 510.632812 551.097656 471.226562 517.152344 458.535156 C 511.234375 456.363281 505.554688 454.066406 504.828125 453.460938 C 503.984375 452.855469 499.753906 445.121094 495.527344 436.175781 C 487.191406 418.769531 484.65625 416.113281 475.472656 414.660156 L 470.882812 413.9375 L 470.398438 402.210938 L 469.796875 390.367188 L 474.386719 383.113281 C 481.394531 371.875 487.554688 359.0625 492.992188 344.4375 L 497.945312 331.140625 L 503.5 330.417969 C 510.75 329.328125 512.804688 328.121094 519.207031 320.988281 C 532.253906 306.484375 544.332031 272.640625 544.332031 250.523438 C 544.332031 238.433594 538.171875 230.214844 529.113281 230.214844 C 525.972656 230.214844 525.851562 230.09375 526.695312 224.535156 C 527.058594 221.394531 527.78125 214.382812 528.144531 209.0625 L 528.992188 199.273438 L 522.46875 194.4375 C 499.636719 177.277344 466.414062 163.859375 430.773438 157.453125 C 419.902344 155.519531 410.601562 154.914062 388.492188 154.671875 C 372.910156 154.429688 358.773438 154.429688 357.082031 154.792969 Z M 418.332031 164.34375 C 436.695312 166.761719 455.417969 170.992188 470.277344 176.066406 L 482.117188 180.175781 L 482.722656 195.285156 L 483.324219 210.273438 L 489.003906 219.699219 C 500.722656 238.796875 501.207031 240.128906 500.238281 252.457031 C 497.945312 285.089844 487.675781 324.734375 474.871094 351.808594 C 462.425781 377.675781 432.105469 409.707031 409.632812 420.585938 C 381.003906 434.484375 354.910156 425.78125 322.410156 391.816406 C 301.875 370.183594 293.054688 355.316406 283.390625 325.824219 C 276.503906 305.15625 272.15625 285.9375 269.496094 266.113281 C 266.597656 243.148438 266.839844 240.851562 273.363281 229.613281 C 276.382812 224.292969 280.371094 217.523438 282.0625 214.503906 C 284.960938 209.546875 285.203125 207.976562 285.203125 195.164062 L 285.203125 181.386719 L 293.417969 177.878906 C 304.652344 173.164062 326.640625 167.605469 344.15625 164.945312 C 363.242188 162.046875 398.519531 161.804688 418.332031 164.34375 Z M 246.0625 244.359375 C 250.894531 247.257812 252.464844 251.246094 256.8125 271.914062 C 258.867188 281.828125 262.128906 297.054688 264.183594 305.515625 C 266.234375 314.097656 267.6875 321.351562 267.324219 321.59375 C 265.996094 322.921875 257.78125 317.964844 254.277344 313.738281 C 248.476562 306.847656 240.140625 288.59375 236.757812 275.421875 C 233.253906 261.761719 232.410156 247.378906 234.945312 244.359375 C 237 241.699219 241.589844 241.699219 246.0625 244.359375 Z M 532.976562 245.324219 C 539.378906 255.113281 525.367188 302.253906 512.199219 315.429688 C 508.453125 319.296875 502.777344 321.957031 501.445312 320.625 C 501.085938 320.261719 502.65625 311.921875 504.949219 302.011719 C 507.246094 292.101562 510.507812 276.628906 512.320312 267.683594 C 515.945312 249.554688 517.394531 246.535156 522.949219 244.117188 C 528.507812 241.699219 530.683594 241.941406 532.976562 245.324219 Z M 346.8125 438.835938 C 361.550781 448.625 368.679688 450.800781 385.472656 450.679688 C 396.34375 450.679688 400.089844 450.195312 405.648438 447.902344 C 417.484375 443.308594 430.535156 433.757812 445.632812 418.652344 C 453.488281 410.792969 460.253906 404.265625 460.492188 404.265625 C 460.734375 404.265625 460.976562 406.5625 460.976562 409.464844 C 460.976562 415.992188 463.03125 432.792969 465.085938 442.945312 L 466.777344 450.800781 L 463.03125 455.515625 C 454.453125 466.394531 431.015625 481.742188 407.582031 492.019531 C 397.070312 496.609375 397.070312 496.730469 395.863281 502.171875 C 395.257812 505.191406 394.050781 513.289062 393.203125 520.300781 C 392.359375 527.3125 391.152344 533.355469 390.425781 533.839844 C 388.492188 535.167969 379.070312 535.046875 378.222656 533.597656 C 377.863281 532.992188 376.171875 524.773438 374.480469 515.222656 C 372.910156 505.675781 370.855469 497.335938 370.007812 496.609375 C 369.164062 495.765625 363.363281 492.984375 357.082031 490.203125 C 336.546875 481.140625 317.699219 468.8125 306.949219 457.328125 C 301.875 451.890625 301.390625 450.800781 302.117188 447.417969 C 303.6875 440.042969 306.222656 422.15625 307.070312 412.726562 L 307.792969 403.300781 L 321.929688 417.441406 C 330.625 426.265625 340.050781 434.363281 346.8125 438.835938 Z M 346.8125 438.835938 " fill-opacity="1" fill-rule="nonzero"/></g></svg>