<svg xmlns="http://www.w3.org/2000/svg" xmlns:xlink="http://www.w3.org/1999/xlink" width="1024" zoomAndPan="magnify" viewBox="0 0 768 767.999994" height="1024" preserveAspectRatio="xMidYMid meet" version="1.0"><defs><clipPath id="64a24d1c84"><path d="M 51.839844 2 L 716 2 L 716 768 L 51.839844 768 Z M 51.839844 2 " clip-rule="nonzero"/></clipPath></defs><g clip-path="url(#64a24d1c84)"><path fill="#000000" d="M 678.457031 485.589844 L 567.40625 372.699219 L 546.675781 160.402344 C 546.675781 160.402344 536.207031 5.222656 391.746094 2.824219 C 267.933594 0.773438 233.335938 110.015625 228.847656 159.90625 L 209.601562 373.679688 L 90.269531 485.503906 C 71.542969 500.765625 57.625 545.601562 51.804688 578.03125 L 390.421875 767.582031 L 715.996094 578.308594 C 707.871094 552.035156 714.089844 532.6875 678.457031 485.589844 Z M 678.457031 485.589844 " fill-opacity="1" fill-rule="nonzero"/></g><path fill="#e7d783" d="M 501.300781 237.066406 C 501.789062 236.269531 503.34375 235.191406 504.261719 232.128906 C 506.023438 226.277344 508.28125 203.328125 504.195312 180.636719 C 502.6875 175.789062 500.636719 170.914062 500.132812 169.03125 C 500.234375 170.898438 499.851562 176.34375 499.652344 181.261719 C 502.003906 203.625 498.929688 225.273438 499.484375 231.632812 C 499.761719 234.804688 501.003906 236.15625 501.300781 237.066406 Z M 501.300781 237.066406 " fill-opacity="1" fill-rule="nonzero"/><path fill="#e7d783" d="M 271.84375 248.71875 C 272.140625 247.808594 273.386719 246.457031 273.660156 243.285156 C 274.214844 236.929688 271.144531 215.277344 273.488281 192.941406 C 273.292969 187.996094 272.914062 182.550781 273.015625 180.6875 C 272.507812 182.566406 270.457031 187.445312 268.949219 192.316406 C 264.863281 214.984375 267.125 237.933594 268.882812 243.78125 C 269.804688 246.847656 271.359375 247.921875 271.84375 248.71875 Z M 271.84375 248.71875 " fill-opacity="1" fill-rule="nonzero"/><path fill="#e7d783" d="M 208.945312 373.808594 C 208.464844 374.59375 206.894531 375.726562 205.996094 378.761719 C 204.023438 385.445312 202.800781 406.929688 207.191406 430.175781 C 209.066406 437.257812 211.589844 444.390625 212.234375 447.136719 C 212.050781 445 211.898438 436.058594 211.757812 429.507812 C 209.234375 407.152344 211.402344 385.550781 210.777344 379.222656 C 210.472656 376.105469 209.242188 374.71875 208.945312 373.808594 Z M 208.945312 373.808594 " fill-opacity="1" fill-rule="nonzero"/><path fill="#e7d783" d="M 567.378906 372.363281 C 567.078125 373.265625 565.832031 374.609375 565.554688 377.757812 C 564.996094 384.066406 568.054688 405.550781 565.785156 427.726562 C 565.96875 432.828125 566.320312 438.472656 566.207031 440.394531 C 566.722656 438.449219 568.804688 433.390625 570.328125 428.339844 C 574.335938 405.84375 572.085938 383.058594 570.332031 377.261719 C 569.414062 374.21875 567.863281 373.15625 567.378906 372.363281 Z M 567.378906 372.363281 " fill-opacity="1" fill-rule="nonzero"/><path fill="#e7d783" d="M 531.480469 318.09375 C 513.425781 342.441406 486.742188 370.730469 429.511719 417.683594 C 424.042969 422.171875 418.539062 426.648438 412.707031 431.382812 C 394.464844 446.1875 350.859375 480.816406 319.632812 510.738281 C 319.457031 510.902344 319.296875 511.082031 319.140625 511.261719 C 314.160156 517.011719 307.855469 522.347656 299.617188 527.230469 C 292.5 531.445312 284.515625 534.984375 275.554688 538.207031 C 275.371094 538.273438 275.183594 538.335938 275.003906 538.417969 C 268.855469 541.222656 263.621094 545.058594 259.113281 549.601562 C 254.71875 554.035156 251.078125 559.082031 247.953125 564.40625 C 241.828125 574.84375 237.542969 586.640625 233.652344 596.894531 C 233.53125 597.210938 233.410156 597.527344 233.34375 597.859375 C 233.277344 598.191406 233.285156 598.53125 233.316406 598.871094 C 234.425781 611.90625 238.246094 624.125 242.632812 635.410156 C 247.339844 647.503906 252.722656 658.761719 257.074219 669.375 C 257.078125 669.382812 257.082031 669.390625 257.082031 669.398438 C 257.085938 669.40625 257.089844 669.414062 257.09375 669.421875 C 263.898438 683.015625 266.5 687.328125 269.761719 695.089844 C 268.066406 689.597656 264.800781 679.679688 261.144531 667.796875 L 261.164062 667.847656 C 257.457031 656.824219 252.792969 645.203125 248.957031 633.167969 C 245.460938 622.207031 242.738281 611.011719 242.277344 599.503906 C 246.847656 589.425781 251.320312 579.160156 257.261719 570.195312 C 260.308594 565.601562 263.621094 561.542969 267.351562 558.148438 C 271.039062 554.789062 275.097656 552.113281 279.664062 550.203125 C 289.253906 547.324219 298.269531 543.828125 306.496094 539.292969 C 316.03125 534.035156 323.71875 527.808594 329.726562 520.679688 C 357.785156 493.648438 405.355469 454.246094 420.71875 440.925781 C 426.382812 436.011719 431.8125 431.230469 437.082031 426.488281 C 492.507812 376.621094 515.648438 343.15625 531.480469 318.089844 Z M 531.480469 318.09375 " fill-opacity="1" fill-rule="nonzero"/><path fill="#e7d783" d="M 406.996094 376.621094 C 406.996094 376.621094 497.707031 348.371094 502.078125 234.972656 C 498.449219 220.121094 484.429688 187.902344 469.378906 172.117188 C 441.21875 142.585938 422.933594 141.683594 389.390625 122.867188 C 341.003906 139.671875 302.792969 180.605469 302.792969 180.605469 C 275.289062 208.109375 269.957031 241.300781 270.089844 241.167969 C 266.949219 334.324219 359.449219 374.203125 359.449219 374.203125 C 373.628906 379.644531 394.789062 381.03125 406.996094 376.621094 Z M 406.996094 376.621094 " fill-opacity="1" fill-rule="nonzero"/></svg>